<?xml version="1.0" encoding="UTF-8" standalone="no"?>
<svg
   version="1.0"
   width="500px"
   height="500px"
   viewBox="0 0 500 500"
   preserveAspectRatio="xMidYMid meet"
   id="svg74"
   sodipodi:docname="En-PR-Me-Quedo-BIMI-LOGO.svg"
   xmlns:inkscape="http://www.inkscape.org/namespaces/inkscape"
   xmlns:sodipodi="http://sodipodi.sourceforge.net/DTD/sodipodi-0.dtd"
   xmlns="http://www.w3.org/2000/svg"
   xmlns:svg="http://www.w3.org/2000/svg">
  <defs
     id="defs74" />
  <sodipodi:namedview
     id="namedview74"
     pagecolor="#ffffff"
     bordercolor="#000000"
     borderopacity="0.25"
     inkscape:showpageshadow="2"
     inkscape:pageopacity="0.0"
     inkscape:pagecheckerboard="0"
     inkscape:deskcolor="#d1d1d1" />
  <g
     fill="#fefefe"
     id="g9">
    <path
       d="M0 250 l0 -250 250 0 250 0 0 250 0 250 -250 0 -250 0 0 -250z m176.90 175.25 c3.80 -2.55 9.10 -7.70 11.55 -11.25 1.15 -1.65 2 -3 1.85 -3 -0.15 0 -1.60 1.30 -3.25 2.90 -6.80 6.50 -11.30 9.10 -15.70 9.10 -1.70 0 -2.45 -0.30 -3.40 -1.30 -1.05 -1.15 -1.20 -1.85 -1.35 -5.85 -0.15 -3.65 0.15 -6.20 1.35 -12.25 0.85 -4.20 1.55 -8.35 1.55 -9.25 0 -2.25 0.30 -2.55 4.25 -4.10 5.95 -2.35 10.60 -5.60 16.60 -11.65 11.15 -11.20 11.50 -19.70 0.90 -23.35 -3.25 -1.10 -4.90 -1.05 -8.25 0.20 -7.30 2.75 -14.55 12.15 -20.25 26.05 -2.10 5.15 -5.10 10.25 -6.70 11.50 -0.20 0.15 -1.10 1.25 -2.05 2.50 -0.95 1.25 -2.35 2.95 -3.05 3.75 -0.75 0.85 -2.85 3.30 -4.70 5.50 -7.20 8.60 -9.15 10.25 -12.10 10.25 -2.65 0 -2.90 -0.55 -3.05 -6.20 -0.15 -4.75 -0.05 -5.60 1.35 -9.75 0.85 -2.50 2.45 -6.60 3.60 -9.15 7.65 -17.45 9.20 -25.90 5.45 -29.90 -1.65 -1.75 -3.25 -1.90 -5.90 -0.55 -1.80 0.90 -7.60 6.10 -7.60 6.80 0 0.50 1.20 -0.35 1.90 -1.35 0.50 -0.70 1.20 -0.90 2.50 -0.80 1.85 0.15 1.85 0.15 1.80 2.40 -0.05 1.35 -0.85 4.30 -2.15 7.50 -1.10 2.85 -2.05 5.55 -2.05 6 0 0.40 -0.55 1.60 -1.25 2.65 -0.70 1 -2.10 4.30 -3.10 7.25 -1.60 4.75 -1.85 6.05 -2 11.60 -0.20 5.20 -0.05 6.75 0.75 9.40 1.40 4.40 4.10 7.80 7.35 9.10 l2.60 1.05 1.95 -1.10 c2.35 -1.35 6.15 -5.15 9.15 -9.15 1.20 -1.65 2.40 -3.25 2.65 -3.50 2 -2.45 2.60 -3.25 3.80 -5.15 0.75 -1.20 1.70 -2.15 2.15 -2.15 0.55 0 1.20 -1 1.90 -2.95 1.25 -3.50 1.95 -4.15 4.15 -3.95 l1.65 0.15 0 3.25 c-0.05 3.90 -2.60 16 -3.55 16.80 -0.40 0.30 -0.70 0.95 -0.70 1.40 0 0.95 3.35 6.45 4.10 6.75 0.25 0.05 0.95 0.70 1.60 1.35 1.70 1.90 6.75 4.20 9.05 4.20 1.50 0 2.70 -0.45 4.65 -1.75z m66.25 -2.05 c2.65 -0.40 2.65 -0.70 -0.35 -3.95 -1 -1.05 -1.80 -2.25 -1.80 -2.60 0 -0.40 -0.35 -0.80 -0.75 -0.95 -0.45 -0.20 -0.75 -0.95 -0.75 -2 0 -1.35 0.45 -2.15 2 -3.65 1.10 -1.05 2 -2.20 2 -2.50 0 -0.30 0.25 -0.55 0.50 -0.55 0.30 0 0.50 -0.30 0.50 -0.70 0 -0.40 0.25 -0.80 0.50 -0.90 0.30 -0.10 1 -1.95 1.55 -4.15 1.45 -5.50 1.15 -10.85 -0.85 -15.05 -1.50 -3.15 -6.35 -8.45 -8.95 -9.70 -0.80 -0.40 -1.60 -0.90 -1.75 -1.05 -0.15 -0.15 -1.90 -0.55 -3.85 -0.90 -2.90 -0.50 -4.40 -0.50 -7.25 -0.05 -2 0.35 -3.75 0.75 -3.90 0.95 -0.15 0.15 -0.90 0.65 -1.75 1.15 -2 1.10 -7.15 5.50 -7.20 6.20 -0.05 0.25 -0.45 0.95 -0.90 1.50 -0.50 0.50 -1.35 1.80 -1.90 2.90 -0.55 1.05 -1.80 2.85 -2.75 4 -1 1.10 -2.55 3.05 -3.50 4.30 -0.90 1.25 -1.95 2.50 -2.25 2.75 -0.30 0.30 -1.45 1.75 -2.45 3.25 -1.60 2.30 -1.65 2.50 -0.45 1.25 0.80 -0.80 2.10 -2.40 2.90 -3.50 2.40 -3.20 3.15 -3.75 4.95 -3.75 1.95 0 2 0.10 3.35 5.50 0.50 2.05 1.15 3.80 1.45 3.90 0.25 0.10 0.50 0.50 0.50 0.90 0 0.40 0.25 0.70 0.50 0.70 0.30 0 0.50 0.20 0.50 0.45 0 0.65 4.90 5.55 5.50 5.55 0.30 0 0.50 0.15 0.50 0.40 0 0.35 2 1.15 6.25 2.40 1.75 0.55 3.60 0.65 6.05 0.45 3.85 -0.30 5.20 -0.05 5.20 1.05 0 0.40 0.25 0.70 0.50 0.70 0.30 0 0.50 0.20 0.50 0.45 0 0.25 0.70 1.15 1.50 2.05 0.85 0.90 1.50 1.90 1.50 2.25 0 1.15 1.20 1.40 4.65 0.95z m37.45 -8.90 c3.20 -1.55 6.45 -4.85 8.10 -8.30 1 -2.15 1.05 -3 1.05 -17 l0 -14.75 -2.45 -0.15 c-1.35 -0.10 -3.05 0 -3.70 0.15 -1.20 0.30 -1.20 0.40 -0.85 2.90 0.60 3.75 0.75 14.60 0.30 21.85 -0.40 7.15 -0.95 8.40 -4.20 9.75 -2.35 0.95 -8.30 1 -10.55 0.05 -0.90 -0.40 -2.15 -1.55 -2.85 -2.60 -1.20 -1.95 -1.20 -2.10 -1.35 -16.80 l-0.15 -14.85 -1.45 -0.30 c-0.80 -0.20 -2.30 -0.05 -3.25 0.35 l-1.80 0.60 0.15 14.55 c0.15 13.90 0.20 14.60 1.30 16.75 2.30 4.65 6.05 7.80 10.85 9.05 2.85 0.75 7.80 0.20 10.85 -1.25z m121.55 1.20 c1 -0.30 2.65 -0.70 3.65 -0.95 1.05 -0.25 2 -0.65 2.15 -0.90 0.15 -0.25 1.70 -1.55 3.40 -2.90 1.75 -1.40 3.15 -2.80 3.15 -3.10 0 -0.35 0.20 -0.65 0.45 -0.65 0.25 0 0.60 -0.55 0.75 -1.25 0.20 -0.70 0.55 -1.25 0.80 -1.25 0.50 0 1.35 -2.85 2 -6.80 0.90 -5.40 -1.30 -12.35 -5.25 -16.60 -1.10 -1.20 -2.05 -2.40 -2.15 -2.65 -0.10 -0.25 -0.50 -0.45 -0.90 -0.45 -0.40 0 -0.70 -0.20 -0.70 -0.45 0 -0.25 -0.40 -0.55 -0.85 -0.70 -0.50 -0.15 -2.25 -0.85 -3.90 -1.55 -3.45 -1.50 -6.10 -1.60 -10.65 -0.55 -10.30 2.45 -17.85 13.95 -15.60 23.80 0.90 4.05 1.65 6.10 2.65 7.15 0.45 0.55 0.85 1.15 0.85 1.35 0 0.50 5 5.45 5.50 5.45 0.25 0 0.75 0.30 1.10 0.65 2.25 2.10 9.50 3.40 13.55 2.35z m-78.15 -2.25 c0 -2.05 -0.10 -2.25 -1.25 -2.25 -0.70 0 -1.25 -0.25 -1.25 -0.55 0 -0.35 -0.55 -0.45 -1.60 -0.20 -3.35 0.70 -6.90 0.85 -6.90 0.30 0 -0.35 -1.05 -0.55 -2.50 -0.55 l-2.50 0 0 -5.35 c0 -8.30 -0.60 -7.65 7.30 -7.65 l6.70 0 0 -2.25 0 -2.25 -6.40 0 c-4.30 0 -6.60 -0.20 -7 -0.60 -0.90 -0.90 -0.80 -11.10 0.10 -11.85 0.45 -0.40 2.90 -0.60 7.15 -0.55 3.50 0.05 6.80 0.05 7.30 0.05 0.75 -0.05 0.90 -0.45 0.75 -2.65 l-0.15 -2.65 -10.50 -0.15 c-5.75 -0.05 -11 0 -11.60 0.15 l-1.15 0.25 0 20.50 0 20.50 11.75 0 11.75 0 0 -2.25z m31.60 1.25 c12.40 -3.85 18.15 -18.35 11.65 -29.45 -3.05 -5.15 -7.25 -8.35 -13 -9.80 -3.65 -0.95 -4.95 -1 -13.85 -0.45 l-5.40 0.30 0 20.20 0 20.20 8.70 0 c7.25 0 9.25 -0.15 11.90 -1z m-276.20 -7 c0.20 -1.45 5.40 -12.60 13.05 -28 5.05 -10.15 9.15 -17 11.65 -19.60 0.65 -0.65 1.80 -2 2.55 -3.05 1.20 -1.60 1.70 -1.85 3.35 -1.85 1.45 0 2.10 0.25 2.50 0.95 0.60 1.20 0.65 5.40 0.05 5.80 -0.25 0.15 -0.65 0.95 -0.80 1.85 -0.20 0.85 -0.80 2.30 -1.30 3.20 -1.65 2.95 -3.90 8.70 -3.45 8.70 1.90 0 -1.70 14.40 -3.80 15.20 -0.40 0.15 -0.70 0.80 -0.70 1.45 0 0.65 -0.20 1.35 -0.45 1.65 -0.65 0.65 -0.80 2.25 -0.35 3.70 0.35 1.20 3.05 4 3.75 4 0.60 0 2.30 -2.60 5 -7.60 l2.65 -4.90 -1.80 0 c-1.75 0 -1.80 -0.05 -1.80 -1.80 0 -0.95 0.30 -2.80 0.70 -4.10 0.40 -1.30 1.45 -4.70 2.30 -7.60 0.85 -2.90 2.55 -7.50 3.75 -10.25 1.20 -2.75 2.35 -5.60 2.55 -6.40 0.50 -2.10 -1.80 -6.40 -4.20 -7.70 -1.75 -1 -2 -1.05 -3.40 -0.35 -0.85 0.40 -2.25 1.45 -3.10 2.35 -1.50 1.60 -10.80 15.20 -13.20 19.35 -2.95 5.10 -9.05 17.90 -10.85 22.75 -1.55 4.20 -2.10 4.85 -4.15 4.65 l-1.65 -0.15 0 -5.25 c0 -4.35 0.25 -6 1.35 -9.50 0.75 -2.35 1.50 -5.05 1.65 -6 0.15 -1.05 1.25 -3.05 2.70 -4.90 l2.50 -3.20 -1.50 -2.30 c-0.80 -1.30 -1.95 -2.90 -2.55 -3.55 -1.05 -1.25 -1.05 -1.25 -1.45 -0.20 -0.20 0.60 -0.95 1.95 -1.65 3.05 -2.80 4.40 -6.85 16.50 -8 23.60 -0.95 6.15 -0.25 11.45 1.80 14.05 1.10 1.35 4.55 3.50 5.35 3.35 0.45 -0.10 0.90 -0.70 0.95 -1.40z m39.85 -27.85 c1.25 -1.40 7.70 -10.70 8.45 -12.15 0.30 -0.60 0.25 -0.60 -0.30 0 -0.90 1.05 -5 6.50 -5.90 7.80 -0.40 0.60 -1.50 2.10 -2.40 3.40 -1.80 2.55 -1.75 3.05 0.15 0.95z m-31.50 -44.45 c5.65 -0.20 8.30 -0.10 9.10 0.35 0.80 0.45 1.65 0.45 3.35 0 2.75 -0.70 7.15 -0.70 7.55 -0.05 0.20 0.30 4.50 0.50 11.30 0.50 6.95 0 10.95 -0.20 10.95 -0.50 0 -0.30 1.90 -0.50 4.75 -0.50 2.85 0 4.75 0.20 4.75 0.50 0 0.30 0.30 0.50 0.70 0.50 0.80 0 1.20 -6.55 0.90 -15.90 l-0.15 -5.10 -21.65 0 -21.70 0 -0.30 -1.10 c-0.15 -0.65 -0.30 -7.50 -0.30 -15.20 l0 -14.10 1.15 -0.30 c0.60 -0.15 9.35 -0.30 19.50 -0.30 l18.35 0 0 -9.75 0 -9.75 -19.35 -0.10 -19.40 -0.15 0 -14.25 0 -14.25 21.90 -0.15 21.85 -0.10 0 -10 0 -10 -34.50 0 -34.50 0 0 5.65 c0 3.05 -0.05 30.20 -0.10 60.25 l-0.15 54.65 4 -0.30 c2.20 -0.15 7.60 -0.40 12 -0.55z m79.25 0.30 c0 -0.25 0.75 -0.50 1.70 -0.50 0.95 0 1.90 0.25 2.05 0.50 0.45 0.75 3.05 0.60 3.70 -0.15 0.35 -0.50 0.60 -7.70 0.65 -23.65 l0.15 -22.95 4.75 -0.15 c2.60 -0.05 5 0.05 5.30 0.25 0.35 0.25 3.25 5.35 6.50 11.40 3.25 6.05 8.75 16.30 12.20 22.75 l6.35 11.75 4.05 0.15 c2.25 0.10 4.10 0.35 4.10 0.60 0 0.30 0.55 0.50 1.25 0.50 0.70 0 1.25 -0.20 1.25 -0.50 0 -0.30 1.55 -0.50 3.70 -0.50 2.05 0 3.90 0.25 4.05 0.50 0.35 0.60 9.25 0.70 9.25 0.10 0 -0.25 -2.30 -4.45 -5.10 -9.40 -6.95 -12.35 -15.65 -27.65 -18.25 -32.35 -2.45 -4.40 -2.90 -7.25 -1.15 -7.70 1.75 -0.45 7.90 -3.55 10.40 -5.20 7.85 -5.25 13.30 -14.65 14.70 -25.15 1.15 -9.20 -2.45 -20.55 -8.90 -27.80 -2.15 -2.35 -6.10 -5.25 -10.20 -7.40 -4.45 -2.30 -5.80 -2.80 -11.90 -4.10 -4.75 -1 -10.10 -1.10 -52.95 -1 l-5.15 0 0 59.75 0 59.75 2.90 0.05 c1.55 0 3.30 0.20 3.85 0.45 1.45 0.60 10.75 0.60 10.75 0z m95 0 c0 -0.30 2 -0.50 5 -0.50 l5 0 0 -22.60 c0 -12.45 0.20 -22.95 0.40 -23.30 0.30 -0.45 1.75 -0.60 5.30 -0.50 l4.85 0.15 1.75 3.25 c1 1.80 3.40 6.30 5.40 10 2 3.70 4.95 9.25 6.60 12.25 1.60 3.05 3.50 6.65 4.30 8 0.75 1.40 2.60 4.80 4 7.65 2.50 4.85 2.70 5.10 4.25 5.10 0.85 0 1.75 0.25 1.90 0.50 0.15 0.30 0.85 0.50 1.55 0.50 0.65 0 1.20 -0.20 1.20 -0.50 0 -0.25 0.80 -0.50 1.75 -0.50 0.95 0 1.75 0.15 1.75 0.40 0 0.20 3.15 0.40 7 0.50 4.45 0.05 7 -0.05 7 -0.40 0 -0.25 0.80 -0.50 1.80 -0.50 1.50 0 1.75 -0.15 1.50 -0.85 -0.20 -0.50 -2.85 -5.25 -5.90 -10.65 -3.05 -5.35 -7 -12.35 -8.80 -15.50 -1.75 -3.15 -3.95 -7 -4.85 -8.50 -4.20 -7.20 -5.25 -9.50 -5.25 -11.25 0 -1.45 0.20 -1.90 1.05 -2.10 4.05 -1.10 12.90 -6.60 16 -10 5.25 -5.75 9.45 -16.20 9.45 -23.50 0 -6.10 -2.65 -14.90 -6.05 -20.20 -4.35 -6.70 -12.85 -12.85 -20.70 -14.90 -7.65 -2 -8.80 -2.05 -36.10 -2.05 l-26.65 0 0 59.70 0 59.70 1.40 0.50 c1.80 0.70 14.10 0.75 14.10 0.10z m96 -0.05 c0 -0.50 5.05 -0.40 20.90 0.30 4.15 0.20 6.10 0.15 6.10 -0.20 0 -0.30 0.80 -0.55 1.75 -0.55 0.95 0 1.75 0.25 1.75 0.50 0 0.30 1.75 0.50 4.25 0.50 2.50 0 4.25 -0.20 4.25 -0.50 0 -0.70 4.75 -0.65 9.10 0.10 2.85 0.50 3.60 0.50 3.80 0 0.10 -0.30 0.85 -0.60 1.65 -0.60 l1.45 0 0 -10 0 -10 -21.70 0 c-19.30 0 -21.75 -0.10 -22 -0.80 -0.15 -0.45 -0.30 -7.25 -0.30 -15.20 0 -12.65 0.10 -14.45 0.80 -14.70 0.45 -0.15 9.20 -0.30 19.50 -0.30 l18.70 0 0 -9.75 0 -9.75 -19.35 -0.10 -19.40 -0.15 -0.15 -13.25 c-0.05 -7.30 0 -13.75 0.15 -14.35 l0.25 -1.15 18.90 0 c10.35 0.05 20.15 0.05 21.75 0 l2.85 0 0 -10 0 -10 -34.75 0 -34.75 0 0 59.75 0 59.75 3.65 0 c1.95 0 3.95 0.25 4.35 0.50 1 0.65 6.50 0.65 6.50 -0.05z m35.50 -148.20 c4.95 -1.60 7.20 -2.70 11 -5.30 6.05 -4.15 11.10 -10.40 13.65 -16.80 l0.85 -2.15 -11.45 0 c-10.90 0 -11.50 0.05 -11.80 0.95 -0.50 1.60 -4.20 5.10 -6.40 6.05 -3 1.30 -8.70 1.75 -12.65 1 -7.75 -1.45 -12.75 -8 -12.90 -16.75 l-0.05 -3 28.45 -0.15 c21.50 -0.10 28.65 -0.25 29.20 -0.70 1.10 -0.95 0.50 -10.35 -1.05 -16.45 -3.60 -13.95 -12.35 -23.15 -26.60 -28 -3.10 -1.05 -4.40 -1.20 -11.50 -1.20 -8.80 0 -12 0.70 -18.50 3.90 -5.90 2.90 -12.30 8.80 -15.65 14.40 -3.70 6.25 -6.10 15.25 -6.10 23.15 0 12.55 4.05 23.20 11.85 31.10 4.45 4.50 9.85 7.75 16.15 9.70 6.10 1.85 6.65 1.95 13.50 1.75 4.60 -0.10 6.60 -0.40 10 -1.50z m-261.10 -8.10 l-0.15 -8.40 -19.25 -0.25 -19.25 -0.25 -0.15 -13.35 -0.10 -13.40 4.95 0 c2.80 0 5.15 -0.20 5.30 -0.50 0.15 -0.25 1.05 -0.50 2 -0.50 0.95 0 1.85 0.25 2 0.50 0.15 0.30 1.55 0.50 3.05 0.50 1.50 0 2.70 -0.20 2.70 -0.50 0 -0.25 0.80 -0.50 1.75 -0.50 0.95 0 1.75 0.25 1.75 0.50 0 0.30 1.65 0.50 4 0.50 2.35 0 4 -0.20 4 -0.50 0 -0.25 0.70 -0.50 1.50 -0.50 l1.50 0 0 -8 0 -8 -17.10 -0.10 -17.15 -0.15 -0.15 -12.45 c-0.10 -9.65 0.05 -12.60 0.50 -12.90 0.35 -0.25 2.80 -0.40 5.40 -0.35 2.60 0 11.10 0 18.90 0 l14.10 -0.05 0 -8.45 0 -8.50 -7.35 -0.15 c-4.10 -0.10 -17.70 -0.10 -30.25 0 l-22.90 0.10 0 52 0 52 30.25 0 30.25 0 -0.10 -8.35z m29.10 -13.25 c0.05 -25.60 0.30 -29.70 2.45 -34.05 1.95 -4.05 3.25 -5.45 6.55 -7.15 2.45 -1.25 3.40 -1.45 8.50 -1.60 5 -0.15 6.10 -0.05 8.50 0.90 3.45 1.35 6.75 4.50 8.25 7.75 1.50 3.30 2.30 8.80 2.25 15 -0.05 2.75 -0.05 13.05 -0.05 22.90 l0.05 17.85 10.90 -0.10 10.85 -0.15 -0.15 -24.75 c-0.05 -13.60 -0.35 -26.55 -0.65 -28.75 -1 -8 -4.15 -15.10 -8.85 -20.05 -11.25 -11.85 -29.35 -12.15 -41.15 -0.70 -2.95 2.85 -3.90 3.50 -5.20 3.50 -1.40 0 -1.65 -0.20 -1.95 -1.55 -0.15 -0.85 -0.30 -3.35 -0.30 -5.50 l0 -3.95 -10.75 0 -10.75 0 0 41 0 41 10.75 0 10.75 0 0 -21.60z m126.50 2.60 c0 -17.75 0.05 -19 0.90 -19 11.15 -0.30 23.70 -1.10 26.85 -1.70 14.80 -3 25.65 -15.15 26.60 -29.80 0.35 -5.70 -0.75 -10.95 -3.55 -16.75 -3.35 -6.80 -8.10 -11.20 -16.15 -14.80 -5.90 -2.65 -9.40 -2.95 -33.95 -2.95 l-22.20 0 0 52 0 52 10.75 0 10.75 0 0 -19z m-42.95 -10.50 c1.20 0 5.70 -4.20 6.45 -6 0.85 -2.05 0.40 -5.55 -1 -7.50 -1.55 -2.15 -5.30 -4.50 -7.20 -4.50 -2.80 0 -6.75 3.10 -8.10 6.35 -0.90 2.05 -0.90 3.75 0 5.80 1.25 3.05 5.95 6.60 8.05 6.10 0.55 -0.15 1.35 -0.25 1.80 -0.25z"
       id="path1" />
    <path
       d="M173 385.30 c0 -1.55 0.85 -4.35 2.80 -9.15 3.40 -8.30 6.60 -14.20 9.55 -17.65 2.10 -2.35 2.35 -2.50 4.60 -2.50 3.25 0 4.20 1.10 4.45 5.15 0.10 1.70 -0.05 4.75 -0.30 6.75 -0.45 3.25 -0.80 3.95 -3.15 7 -5.95 7.60 -12.35 12.60 -16.20 12.60 -1.75 0 -1.75 0 -1.75 -2.20z"
       id="path2" />
    <path
       d="M222.85 409.40 c-2.80 -0.60 -5.45 -2.95 -7.30 -6.40 -2.15 -4 -1.90 -14.20 0.40 -17 0.45 -0.50 1.25 -1.55 1.80 -2.25 1.90 -2.40 5 -3.50 10 -3.50 5 0.05 6.65 0.65 9.55 3.50 2.25 2.30 3.20 5.75 3.20 12.10 0 2.95 -0.20 5.15 -0.50 5.15 -0.25 0 -0.60 0.80 -0.80 1.75 -0.15 0.95 -0.50 1.75 -0.70 1.75 -0.20 0 -0.50 0.45 -0.65 1 -0.15 0.55 -0.85 1.20 -1.55 1.50 -0.70 0.25 -1.30 0.65 -1.30 0.90 0 1.50 -7.90 2.45 -12.15 1.50z"
       id="path3" />
    <path
       d="M393.70 409.45 c-2.40 -0.55 -6.70 -4.15 -6.70 -5.55 0 -0.50 -0.20 -0.90 -0.45 -0.90 -0.90 0 -1.70 -5.15 -1.45 -9.50 0.35 -6.20 2.05 -9.55 5.90 -11.70 2.50 -1.40 3.20 -1.50 7.25 -1.55 4.25 0 7.75 0.85 7.75 1.85 0 0.25 0.30 0.40 0.65 0.40 1 0 3.05 2.50 4.15 5 0.75 1.75 0.95 3.40 0.95 7.95 0 4.15 -0.15 5.75 -0.60 5.95 -0.35 0.10 -0.65 0.70 -0.65 1.30 0 1.50 -2.70 4.65 -5.05 5.85 -2.35 1.15 -8.65 1.65 -11.75 0.90z"
       id="path4" />
    <path
       d="M341.85 409.70 c-0.40 -0.45 -0.50 -27.80 -0.05 -28.90 0.25 -0.65 1.20 -0.80 5 -0.80 6.55 0 9.20 0.65 11.85 3.05 3 2.60 3.95 5.10 4.25 11.25 0.15 3.90 0.05 5.65 -0.60 7.55 -1 3.05 -4.40 6.50 -7.10 7.25 -2.30 0.65 -12.80 1.10 -13.35 0.60z"
       id="path5" />
    <path
       d="M175.25 270.35 c-0.15 -0.30 -0.20 -8.05 -0.15 -17.10 l0.15 -16.50 13.25 0 c13.25 0 13.25 0 16.05 1.30 6.05 2.85 8.45 7.25 8.45 15.70 0 9.85 -3.85 15.20 -11.95 16.75 -4.10 0.75 -25.50 0.65 -25.80 -0.15z"
       id="path6" />
    <path
       d="M272.30 269.90 c-0.15 -0.65 -0.30 -8.45 -0.30 -17.30 l0 -16.20 13.40 0.20 c13.35 0.20 13.35 0.20 16.35 1.55 3.30 1.55 5.25 3.50 6.90 6.85 0.90 1.90 1.05 3.15 1.10 8.25 0 7.20 -0.80 10.10 -3.75 13.15 -3.95 4.10 -6.35 4.60 -21.70 4.60 l-11.70 0 -0.30 -1.10z"
       id="path7" />
    <path
       d="M364.35 140.20 c-0.75 -0.75 -0.30 -5.75 0.70 -8.55 1.25 -3.20 4.55 -6.90 7.60 -8.30 4.70 -2.25 13.45 -2.30 18.15 -0.15 5.20 2.40 8.70 7.85 8.70 13.55 l0 2.70 -7.85 0.25 c-17.55 0.70 -26.95 0.85 -27.30 0.50z"
       id="path8" />
    <path
       d="M288.35 131.70 c-0.20 -0.20 -0.35 -7.05 -0.35 -15.25 0 -14.80 0 -14.90 1.10 -15.50 1.75 -0.95 20.60 -0.35 23.10 0.75 5.25 2.25 7.70 6.05 8.15 12.75 0.40 5.90 -0.80 10.45 -3.60 13.25 -3.40 3.35 -5.65 3.90 -17.75 4.15 -5.65 0.10 -10.45 0.05 -10.65 -0.15z"
       id="path9" />
  </g>
  <g
     fill="#b6d9fe"
     id="g15">
    <path
       d="M308.90 410.65 c-1.15 -0.30 -1.30 -3.65 -0.15 -3.65 0.40 0 0.75 0.35 0.75 0.75 0 0.55 0.60 0.75 2.50 0.75 1.40 0 2.50 0.20 2.50 0.45 0 0.20 0.60 0.30 1.40 0.15 3.50 -0.60 7.10 -0.65 7.10 -0.10 0 0.30 0.20 0.45 0.45 0.25 0.25 -0.15 0.65 0 0.85 0.30 0.15 0.30 0 0.75 -0.35 1 -0.70 0.40 -13.45 0.50 -15.05 0.10z"
       id="path10" />
    <path
       d="M299 375.30 c0 -2.50 0.40 -2.80 3.85 -2.80 2 0 2.20 0.10 2.05 1.15 -0.10 0.85 -0.55 1.15 -1.75 1.25 -1.35 0.15 -1.65 0.35 -1.65 1.40 0 0.95 -0.25 1.20 -1.25 1.20 -1.15 0 -1.25 -0.20 -1.25 -2.20z"
       id="path11" />
    <path
       d="M258.15 374.65 c-2.65 -0.50 -0.40 -2.15 2.95 -2.15 3.10 0 4.40 0.45 4.40 1.55 0 0.85 -0.35 0.95 -3.10 0.90 -1.75 -0.05 -3.65 -0.20 -4.25 -0.30z"
       id="path12" />
    <path
       d="M306.35 374.65 c-0.20 -0.15 -0.35 -0.75 -0.35 -1.25 0 -0.80 0.45 -0.90 4.50 -0.90 4.10 0 4.50 0.10 4.50 0.95 0 0.50 -0.35 1.10 -0.80 1.25 -1.05 0.40 -7.45 0.40 -7.85 -0.05z"
       id="path13" />
    <path
       d="M320.65 374.65 c-0.35 -0.10 -0.65 -0.65 -0.65 -1.20 0 -0.80 0.35 -0.95 2.45 -0.95 2.45 0 3.95 0.90 3.30 2 -0.30 0.50 -3.95 0.65 -5.10 0.15z"
       id="path14" />
    <path
       d="M343 374.05 c0 -1.15 1.30 -1.55 5.40 -1.55 3.40 0 5.10 0.60 5.10 1.75 0 0.60 -0.95 0.75 -5.25 0.75 -4.80 0 -5.25 -0.10 -5.25 -0.95z"
       id="path15" />
  </g>
  <g
     fill="#b6b5b5"
     id="g25">
    <path
       d="M154.90 337.15 c-0.50 -0.10 -0.90 -0.65 -0.90 -1.20 0 -0.90 0.45 -0.95 10.95 -0.95 11.05 0 12.35 0.20 11.05 1.75 -0.75 0.90 -6.05 1 -6.90 0.15 -0.45 -0.45 -0.60 -0.45 -0.60 0 0 0.45 -1.70 0.60 -6.35 0.55 -3.55 -0.05 -6.80 -0.15 -7.25 -0.30z"
       id="path16" />
    <path
       d="M217 337 c0 -0.25 -0.35 -0.35 -0.80 -0.15 -0.60 0.20 -0.75 0.05 -0.60 -0.65 0.10 -0.70 0.65 -1 2.15 -1.10 3.05 -0.25 6.25 0.35 6.25 1.15 0 0.45 -0.30 0.60 -0.75 0.45 -0.40 -0.20 -0.75 -0.05 -0.75 0.25 0 0.35 -1.05 0.55 -2.75 0.55 -1.50 0 -2.75 -0.20 -2.75 -0.50z"
       id="path17" />
    <path
       d="M227.25 337 c-0.20 -0.30 -0.55 -0.40 -0.80 -0.25 -0.25 0.20 -0.45 0 -0.45 -0.40 0 -1.15 1.15 -1.35 8 -1.35 6.50 0 7 0.15 7 2.05 0 0.65 -13.35 0.60 -13.75 -0.05z"
       id="path18" />
    <path
       d="M246.90 337.15 c-0.50 -0.10 -0.90 -0.65 -0.90 -1.20 0 -0.90 0.45 -0.95 8.90 -0.95 8.65 0 10.60 0.30 9.90 1.45 -0.20 0.30 -0.60 0.45 -0.85 0.30 -0.25 -0.20 -0.45 -0.05 -0.45 0.20 0 0.55 -14.70 0.70 -16.60 0.20z"
       id="path19" />
    <path
       d="M308.90 336.80 c-2.25 -1.70 -1.20 -1.80 13.80 -1.75 15.20 0.05 15.30 0.05 15.30 2 0 0.50 -3.15 0.60 -3.70 0.10 -0.50 -0.55 -1.80 -0.60 -1.80 -0.10 0 0.70 -16.90 0.55 -17.20 -0.20 -0.15 -0.45 -0.25 -0.45 -0.25 0.05 -0.05 0.85 -5.05 0.75 -6.15 -0.10z"
       id="path20" />
    <path
       d="M349.75 336.85 c-1.80 -1.35 -0.35 -1.85 5.55 -1.85 5.45 0 5.70 0.05 5.70 1.05 0 0.75 -0.25 0.95 -0.75 0.75 -0.40 -0.15 -0.75 -0.05 -0.75 0.20 0 0.80 -8.65 0.60 -9.75 -0.15z"
       id="path21" />
    <path
       d="M371.20 336.80 c-0.50 -0.40 -0.75 -0.90 -0.55 -1.15 0.25 -0.20 6.95 -0.45 14.90 -0.55 l14.45 -0.15 0 1.10 c0 0.75 -0.25 0.95 -0.75 0.75 -0.40 -0.15 -0.75 -0.05 -0.75 0.20 0 0.80 -11.35 0.65 -11.65 -0.10 -0.20 -0.50 -0.30 -0.50 -0.30 0 -0.05 0.95 -14 0.85 -15.35 -0.10z"
       id="path22" />
    <path
       d="M404.40 337.15 c-1.70 -0.45 -0.95 -1.60 1.25 -1.90 3.60 -0.55 7.05 -0.15 7.25 0.85 0.10 0.65 -0.05 0.80 -0.60 0.60 -0.45 -0.15 -0.80 -0.05 -0.80 0.25 0 0.55 -5.25 0.70 -7.10 0.20z"
       id="path23" />
    <path
       d="M93.50 144.80 c0 -1.10 0.30 -1.80 0.80 -2 1.05 -0.40 30.15 -0.40 32.15 0 0.85 0.20 1.55 0.65 1.55 1 0 0.40 -0.30 0.55 -0.75 0.40 -0.40 -0.20 -0.75 -0.05 -0.75 0.25 0 0.80 -10.85 0.75 -11.15 -0.05 -0.20 -0.50 -0.30 -0.50 -0.30 0 -0.05 0.80 -8.10 0.85 -8.90 0.05 -0.40 -0.40 -0.65 -0.40 -0.85 0 -0.25 0.35 -2.30 0.55 -5.35 0.55 -4.05 0 -4.95 0.15 -4.95 0.75 0 0.40 -0.35 0.75 -0.75 0.75 -0.50 0 -0.75 -0.50 -0.75 -1.70z"
       id="path24" />
    <path
       d="M382.20 139.75 c-0.20 -0.45 -0.15 -0.95 0.05 -1.15 0.15 -0.20 3.80 -0.40 8.05 -0.50 6.25 -0.15 7.70 -0.30 7.70 -0.90 0 -0.40 0.35 -0.70 0.80 -0.70 0.60 0 0.70 0.45 0.60 1.90 l-0.15 1.85 -8.40 0.15 c-7.20 0.10 -8.40 0 -8.65 -0.65z"
       id="path25" />
  </g>
  <g
     fill="#66b2fe"
     id="g30">
    <path
       d="M237.65 424.65 c-0.35 -0.10 -0.65 -0.55 -0.65 -0.90 0 -0.35 -0.65 -1.35 -1.50 -2.25 -0.80 -0.90 -1.50 -1.80 -1.50 -2.05 0 -0.25 -0.20 -0.45 -0.50 -0.45 -0.25 0 -0.50 -0.30 -0.50 -0.70 0 -0.80 -1.35 -1.45 -1.70 -0.85 -0.30 0.40 -6.80 0.40 -7.60 -0.05 -0.45 -0.25 -3.95 -1 -4.45 -0.90 -0.15 0 -0.65 -0.30 -1.05 -0.75 -0.45 -0.40 -1.20 -0.75 -1.75 -0.75 -0.50 0 -0.95 -0.20 -0.95 -0.50 0 -0.25 -0.20 -0.50 -0.50 -0.50 -0.60 0 -5.50 -4.90 -5.50 -5.55 0 -0.25 -0.20 -0.45 -0.50 -0.45 -0.25 0 -0.50 -0.25 -0.50 -0.55 0 -0.30 -0.35 -0.85 -0.75 -1.25 -0.40 -0.45 -0.75 -1.30 -0.75 -2 0 -0.65 -0.25 -1.20 -0.55 -1.20 -0.30 0 -0.45 -0.35 -0.30 -0.75 0.20 -0.40 0.10 -0.85 -0.20 -1.05 -0.30 -0.15 -0.40 -0.65 -0.25 -1.05 0.25 -0.60 -0.30 -2.30 -1 -3.10 -0.15 -0.15 -0.55 0.20 -1 0.75 -0.70 0.85 -0.70 0.60 -0.40 -3.20 0.25 -3.70 0.50 -4.45 2.25 -7.05 1.05 -1.60 1.95 -3.20 1.95 -3.50 0 -0.30 0.20 -0.55 0.40 -0.55 0.25 0 0.75 -0.60 1.15 -1.35 0.40 -0.75 1.70 -2.25 2.90 -3.35 1.25 -1.15 2.65 -2.45 3.15 -2.90 0.50 -0.50 1.05 -0.95 1.30 -0.95 0.80 -0.15 1.85 -0.65 2.10 -1 0.15 -0.20 0.95 -0.50 1.75 -0.65 0.85 -0.10 2.50 -0.40 3.75 -0.60 3.15 -0.50 6.55 -0.55 6.85 -0.05 0.10 0.20 0.65 0.25 1.15 0.10 0.50 -0.15 1.05 -0.05 1.25 0.25 0.15 0.25 0.95 0.50 1.80 0.50 0.80 0 1.45 0.15 1.45 0.40 0 0.20 0.75 0.65 1.65 1.05 0.85 0.40 1.70 0.85 1.85 1 0.15 0.15 1.30 1.25 2.60 2.45 1.30 1.15 2.20 2.10 2 2.10 -0.20 0 0 0.30 0.45 0.65 1 0.75 4.05 7.25 3.70 7.85 -0.15 0.25 -0.10 0.55 0.15 0.70 0.50 0.30 0.45 9.35 -0.05 10.15 -0.20 0.30 -0.20 0.90 -0.05 1.35 0.15 0.45 0.10 0.80 -0.20 0.80 -0.30 0 -0.65 0.90 -0.85 2 -0.20 1.10 -0.65 2.35 -1.05 2.70 -0.40 0.40 -0.70 0.95 -0.70 1.25 0 0.30 -0.20 0.55 -0.50 0.55 -0.25 0 -0.50 0.25 -0.50 0.55 0 0.30 -0.95 1.45 -2.05 2.55 -1.80 1.75 -1.95 2.10 -1.25 2.50 0.45 0.25 0.80 0.70 0.80 1.05 0 0.55 1.75 2.80 4.75 6.10 0.95 1.10 2.25 3.05 2.25 3.45 0 0.25 -11.15 0.25 -11.85 -0.05z m-7.25 -16.75 c0.60 0 1.10 -0.20 1.10 -0.50 0 -0.25 0.20 -0.35 0.45 -0.15 0.30 0.15 0.90 -0.15 1.40 -0.65 0.50 -0.50 1.30 -1.10 1.80 -1.25 0.55 -0.20 1.05 -0.80 1.20 -1.35 0.15 -0.55 0.45 -1 0.65 -1 0.20 0 0.55 -0.80 0.70 -1.75 0.20 -0.95 0.55 -1.75 0.75 -1.75 0.20 0 0.35 -1.95 0.30 -4.35 -0.10 -4.40 -0.90 -8.15 -1.80 -8.15 -0.25 0 -0.40 -0.15 -0.35 -0.40 0.35 -1 -3.80 -4.10 -6 -4.50 -4.60 -0.80 -8.90 0.40 -11.20 3.05 -0.75 0.90 -1.60 1.90 -1.90 2.25 -0.30 0.35 -0.65 1.05 -0.80 1.60 -0.10 0.55 -0.35 1.50 -0.50 2.15 -0.55 2.05 -0.65 6.55 -0.15 7.15 0.25 0.35 0.40 0.80 0.35 1.05 -0.50 1.55 4.70 8.10 6.50 8.20 1.95 0.10 3.10 0.30 3.45 0.60 0.15 0.20 0.90 0.20 1.60 0.05 0.70 -0.20 1.80 -0.30 2.45 -0.30z"
       id="path26" />
    <path
       d="M270.25 417.60 c-0.05 -0.10 -0.75 -0.25 -1.50 -0.40 -2.50 -0.45 -7.10 -3.15 -8.70 -5.05 -1.80 -2.15 -3.40 -5.35 -3.85 -7.75 -0.40 -1.95 -0.60 -30.85 -0.20 -30.95 0.15 -0.05 2.35 -0.15 4.90 -0.20 2.95 -0.05 4.60 0.10 4.65 0.45 0.05 0.30 0.10 6.95 0.15 14.80 0.05 14.10 0.05 14.25 1.25 16.20 1.95 3.15 6.40 4.20 10.40 2.55 1.90 -0.80 2.90 -1.75 3.70 -3.70 0.55 -1.35 0.65 -20.15 0.15 -26.25 -0.25 -3.05 -0.20 -4 0.35 -4.35 1.10 -0.70 9.25 -0.55 9.80 0.20 0.55 0.70 0.45 29.55 -0.10 31.10 -1.45 4.05 -2.05 5.25 -3.60 7.15 -3.30 4 -7.70 6 -13.80 6.20 -1.90 0.10 -3.50 0.10 -3.60 0z"
       id="path27" />
    <path
       d="M394.70 417.55 c-0.15 -0.15 -0.85 -0.35 -1.55 -0.45 -0.75 -0.10 -1.75 -0.40 -2.25 -0.65 -0.55 -0.30 -1.40 -0.60 -1.95 -0.70 -0.55 -0.10 -1.30 -0.55 -1.75 -0.95 -0.40 -0.45 -0.95 -0.80 -1.20 -0.80 -0.50 0 -5.50 -4.95 -5.50 -5.45 0 -0.20 -0.40 -0.80 -0.85 -1.35 -1.05 -1.15 -2.10 -3.80 -2.45 -6.15 -0.10 -0.90 -0.45 -2.05 -0.70 -2.55 -0.80 -1.55 -0.15 -8.60 1.15 -11.60 0.45 -1.05 0.65 -1.90 0.45 -1.90 -0.20 0 -0.10 -0.20 0.15 -0.40 0.30 -0.20 0.95 -1 1.45 -1.75 1.65 -2.65 4.55 -5.50 7.30 -7.30 1.50 -0.95 2.90 -1.80 3.15 -1.85 0.20 -0.05 0.50 -0.15 0.75 -0.20 0.20 -0.05 0.60 -0.15 0.85 -0.25 0.30 -0.05 0.60 -0.15 0.75 -0.20 0.60 -0.30 3.55 -0.55 7 -0.60 3.05 -0.05 4.35 0.20 6.75 1.30 1.65 0.70 3.40 1.45 3.90 1.60 0.45 0.15 0.85 0.45 0.85 0.70 0 0.25 0.30 0.45 0.70 0.45 0.40 0 0.80 0.20 0.90 0.45 0.10 0.25 1.05 1.45 2.15 2.65 1.10 1.20 2.45 3.10 3 4.25 0.55 1.20 1.10 2.15 1.25 2.15 0.15 0 0.35 0.70 0.40 1.60 0.10 0.85 0.30 1.80 0.55 2.10 0.65 0.90 0.25 10.35 -0.60 13.15 -0.40 1.45 -1.10 3 -1.55 3.40 -0.45 0.45 -0.80 1.15 -0.80 1.55 0 0.40 -0.20 0.70 -0.50 0.70 -0.25 0 -0.50 0.30 -0.50 0.65 0 0.35 -1.25 1.60 -2.75 2.80 -1.50 1.20 -2.75 2.45 -2.75 2.70 0 0.30 -0.15 0.40 -0.30 0.20 -0.20 -0.15 -0.65 0 -1.05 0.40 -0.40 0.40 -1.25 0.75 -1.95 0.75 -0.65 0 -1.20 0.20 -1.20 0.50 0 0.25 -0.15 0.45 -0.35 0.45 -0.25 -0.05 -0.50 0 -0.65 0.05 -1.05 0.40 -9.95 0.90 -10.30 0.55z m6.30 -9.60 c1.25 -0.05 3.50 -1.05 3.50 -1.55 0 -0.25 0.20 -0.35 0.45 -0.20 0.70 0.45 4.05 -3.75 4.05 -5.05 0 -0.65 0.25 -1.15 0.55 -1.15 0.35 0 0.45 -0.50 0.25 -1.25 -0.20 -0.70 -0.15 -1.25 0.10 -1.25 0.25 0 0.40 -1.10 0.40 -2.50 0 -1.40 -0.20 -2.50 -0.35 -2.50 -0.15 0 -0.20 -0.55 -0.05 -1.25 0.10 -0.75 0 -1.25 -0.35 -1.25 -0.30 0 -0.50 -0.15 -0.45 -0.35 0.40 -1.45 -2.55 -5.65 -3.95 -5.65 -0.35 0 -0.65 -0.20 -0.65 -0.45 0 -0.40 -1.50 -1.10 -2.75 -1.25 -0.25 -0.05 -0.75 -0.25 -1.05 -0.40 -0.55 -0.35 -3.70 -0.15 -5.20 0.25 -2.45 0.75 -3 1 -3 1.40 0 0.25 -0.15 0.40 -0.35 0.35 -0.70 -0.20 -2.70 1.15 -2.40 1.55 0.15 0.25 -0.10 0.60 -0.55 0.75 -0.40 0.15 -0.60 0.50 -0.45 0.80 0.15 0.25 0.05 0.50 -0.20 0.50 -0.30 0 -0.50 0.15 -0.45 0.40 0.05 0.20 -0.20 0.85 -0.55 1.50 -0.35 0.65 -0.50 1.50 -0.35 1.85 0.10 0.35 0.10 0.80 -0.10 1 -0.45 0.45 -0.45 5.75 0.05 5.75 0.25 0 0.25 0.45 0.10 1 -0.20 0.55 -0.10 1 0.20 1 0.30 0 0.40 0.35 0.25 0.75 -0.20 0.40 -0.05 0.75 0.25 0.75 0.30 0 0.55 0.40 0.55 0.90 0 0.90 4.15 5.05 5.20 5.15 0.30 0.05 1.05 0.15 1.70 0.20 0.60 0.05 1.25 0.20 1.35 0.35 0.15 0.15 1 0.15 1.90 0.05 0.85 -0.10 1.95 -0.20 2.35 -0.20z"
       id="path28" />
    <path
       d="M299 396.65 c0 -14.90 0.15 -20.65 0.55 -20.65 0.35 0 0.45 -0.45 0.30 -1.05 -0.20 -0.75 0.05 -1.15 1 -1.50 0.65 -0.25 1.40 -0.35 1.65 -0.20 0.25 0.15 0.55 0.05 0.75 -0.25 0.35 -0.60 4.10 -0.70 4.45 -0.10 0.15 0.25 1.45 0.35 2.90 0.25 3.50 -0.30 10.65 -0.30 13.15 -0.05 l2 0.25 0 3.60 c0.05 2 -0.20 3.80 -0.50 4 -0.25 0.25 -3.65 0.40 -7.50 0.35 -3.85 -0.05 -7.30 0.10 -7.60 0.35 -0.45 0.30 -0.65 1.85 -0.65 4.35 0 2.50 0.20 4.05 0.65 4.40 0.35 0.30 3.10 0.45 6.95 0.35 4.50 -0.15 6.35 0 6.50 0.40 0.10 0.35 0.15 2.05 0.15 3.85 l0 3.25 -6.80 0.15 c-7.95 0.15 -7.45 -0.30 -7.45 6.50 0 3.55 0.10 4.10 0.90 4.15 0.45 0.05 3.90 0.15 7.60 0.20 3.70 0.05 7 0.15 7.25 0.20 0.60 0.05 0.70 6.80 0.10 7.35 -0.20 0.25 -6.25 0.40 -13.35 0.45 l-13 0 0 -20.60z"
       id="path29" />
    <path
       d="M333.85 416.90 c-0.45 -0.25 -0.60 -5.55 -0.60 -22 l0 -21.65 9.75 0 c11.25 -0.05 15 0.55 18.75 3 6.75 4.35 10 10.85 9.85 19.80 -0.20 9.45 -5.85 17.25 -14.55 20 -2.85 0.90 -4.70 1.10 -12.95 1.15 -5.30 0.05 -9.90 -0.10 -10.25 -0.30z m19.85 -9.35 c2.55 -0.65 6.05 -4.10 7 -6.85 1 -2.90 0.65 -9.45 -0.60 -12.30 -1 -2.30 -3.85 -5.15 -6.05 -6 -1.40 -0.55 -10.50 -0.95 -10.60 -0.45 -0.15 0.75 -0.25 25.85 -0.15 26.10 0.25 0.45 8.20 0.10 10.40 -0.50z"
       id="path30" />
  </g>
  <g
     fill="#f18082"
     id="g31">
    <path
       d="M106.75 371 c-0.15 -0.30 0.50 -2.15 1.45 -4.15 1 -2 1.80 -3.80 1.80 -4 0 -1.20 1.85 -4.35 2.50 -4.25 1.75 0.35 1 7 -1.15 11.05 -0.85 1.55 -1.30 1.85 -2.65 1.85 -0.90 0 -1.80 -0.25 -1.95 -0.50z"
       id="path31" />
  </g>
  <g
     fill="#8f8f8f"
     id="g36">
    <path
       d="M69.75 336.55 c-0.50 -1.55 0.25 -3.55 1.30 -3.55 0.60 0 0.95 0.35 0.95 1 0 0.95 0.35 1 4.70 1 4.90 0 6.30 0.55 4.55 1.85 -0.65 0.45 -2.55 0.65 -6.05 0.65 -4.60 0 -5.15 -0.10 -5.45 -0.95z"
       id="path32" />
    <path
       d="M95.25 337 c-0.20 -0.30 -0.55 -0.40 -0.80 -0.25 -0.25 0.20 -0.45 0 -0.45 -0.40 0 -0.85 2.10 -1.35 5.80 -1.35 2.30 0 2.70 0.15 2.70 0.95 0 0.55 -0.45 1.05 -1.10 1.25 -1.85 0.45 -5.80 0.35 -6.15 -0.20z"
       id="path33" />
    <path
       d="M105.80 336.75 c-2.05 -1.55 -0.40 -1.75 13.50 -1.75 13.60 0 13.70 0 13.70 1.05 0 0.75 -0.25 0.95 -0.75 0.75 -0.40 -0.15 -0.75 -0.05 -0.75 0.20 0 0.30 -4.70 0.50 -12.35 0.50 -9.85 -0.05 -12.60 -0.20 -13.35 -0.75z"
       id="path34" />
    <path
       d="M138 336.95 c0 -0.30 -0.35 -0.45 -0.75 -0.25 -0.45 0.15 -0.75 0 -0.75 -0.40 0 -0.85 1.10 -1.30 3.05 -1.30 1.10 0 1.45 -0.25 1.45 -1 0 -0.55 0.35 -1 0.75 -1 0.40 0 0.75 0.35 0.75 0.75 0 0.40 0.25 0.75 0.50 0.75 0.80 0 0.55 2.35 -0.30 2.70 -1.35 0.50 -4.70 0.35 -4.70 -0.25z"
       id="path35" />
    <path
       d="M303.40 150.60 c-1.25 -0.25 -1.10 -1.45 0.25 -1.80 0.60 -0.15 2.05 -0.30 3.25 -0.30 1.75 0 2.10 0.15 2.10 1 0 0.60 -0.35 1.05 -0.85 1.10 -1.80 0.15 -3.95 0.15 -4.75 0z"
       id="path36" />
  </g>
  <g
     fill="#dd2424"
     id="g37">
    <path
       d="M170 428.65 c-2.25 -0.45 -6.45 -2.60 -8.05 -4.10 -0.85 -0.85 -1.70 -1.55 -1.95 -1.65 -0.20 -0.10 -1.15 -1.40 -2.10 -2.90 -2.15 -3.35 -2.80 -7.25 -1.40 -8 0.50 -0.25 1 -1.10 1.10 -1.85 0.15 -0.80 0.85 -4.30 1.60 -7.80 1.45 -6.55 1.45 -8.50 0.05 -7.35 -0.40 0.35 -1.20 1.95 -1.80 3.55 -0.70 1.95 -1.35 2.95 -1.90 2.95 -0.45 0 -1.40 0.95 -2.15 2.15 -1.20 1.90 -1.80 2.70 -3.80 5.15 -0.25 0.25 -1.45 1.85 -2.65 3.50 -4.85 6.50 -9.45 10.20 -12.65 10.20 -3 0 -6.50 -1.85 -8.55 -4.55 -2.90 -3.85 -3.80 -7.45 -3.85 -15.45 0 -6.15 0.15 -7.20 1.60 -11.95 1.45 -4.85 2 -6.25 4.15 -10.30 0.40 -0.80 1.25 -3.05 1.90 -5 0.60 -1.90 1.65 -4.70 2.30 -6.20 0.60 -1.45 1 -2.90 0.85 -3.15 -0.50 -0.75 -2.35 1.50 -6.75 8 -2.15 3.20 -4.55 6.55 -5.30 7.35 -2.20 2.30 -4.15 5.40 -7.85 12.45 -4.20 8.05 -5.50 9.80 -7.25 9.80 -1.65 0 -4.70 -2.65 -5.55 -4.85 -0.65 -1.70 -0.30 -5.90 0.50 -6.40 0.25 -0.15 0.35 -0.60 0.20 -1 -0.15 -0.35 0.15 -1.10 0.70 -1.65 0.55 -0.55 1.25 -1.45 1.50 -1.95 0.80 -1.45 3.10 -8.80 3.10 -9.80 0 -2.20 -1.55 0.45 -3.10 5.25 -1.20 3.75 -1.65 4.80 -2 4.15 -0.30 -0.50 -0.30 -1.05 0.05 -1.45 0.30 -0.35 0.45 -0.75 0.30 -0.85 -0.45 -0.45 0.85 -4.20 3.85 -11.20 3.35 -7.80 3.90 -8.70 3.90 -6.35 0 0.90 -0.25 1.60 -0.55 1.60 -0.25 0 -0.35 0.25 -0.15 0.55 0.40 0.70 2.05 -1.70 2.70 -4.05 0.40 -1.45 0.35 -1.85 -0.35 -2.35 -0.45 -0.35 -0.65 -0.80 -0.45 -1 0.20 -0.20 0.55 -0.05 0.80 0.35 0.25 0.40 0.60 0.60 0.75 0.40 0.50 -0.50 -0.30 -4.75 -1.05 -5.75 -0.65 -0.85 -0.75 -0.80 -2 0.60 -0.70 0.85 -1.95 2.30 -2.80 3.25 -3.30 3.80 -6.85 9.70 -11.95 20 -8 16.10 -12.95 26.75 -12.95 27.85 0 0.55 -0.45 1.40 -1 1.90 -1 0.90 -1.10 0.90 -3.50 -0.25 -3 -1.40 -5.30 -3.55 -6.35 -5.95 -1.10 -2.45 -1.25 -8.85 -0.40 -14.30 1.20 -7.35 5.25 -19.35 8.05 -23.80 0.70 -1.10 1.45 -2.55 1.70 -3.20 0.60 -1.65 2.50 -1.65 4.10 0 0.70 0.70 2.10 2.60 3.15 4.30 2.15 3.55 2.15 3.65 -1.50 8.35 -1.50 1.90 -2.40 3.65 -2.55 4.90 -0.15 1.05 -0.85 3.65 -1.55 5.70 -1.30 3.80 -2.05 9.75 -1.45 11.30 0.30 0.80 0.40 0.75 1.10 -0.20 0.40 -0.60 1.30 -2.60 2 -4.45 1.85 -4.85 7.70 -17.10 10.60 -22.10 2.45 -4.20 11.70 -17.80 13.25 -19.40 4.40 -4.65 9.90 -3.95 12.65 1.70 1.85 3.70 1.55 6.45 -1.45 13.15 -1.25 2.90 -3 7.60 -3.85 10.50 -0.85 2.90 -1.90 6.35 -2.30 7.70 -1.35 4.40 0.20 3.55 2.75 -1.50 0.85 -1.70 1.55 -3.25 1.55 -3.50 0 -0.25 1 -1.80 2.20 -3.45 1.25 -1.65 3.65 -5 5.40 -7.40 3.75 -5.30 7.90 -9.55 10.45 -10.90 5.35 -2.70 9.55 -1.15 10.70 4.05 0.55 2.30 0.40 7.35 -0.25 10.35 -0.70 3.05 -4.35 13.05 -6.95 19.05 -3.65 8.30 -4.95 12.85 -4.85 17.25 0.05 4.50 0.60 5.25 3 4 1.60 -0.85 3.85 -3.15 9.05 -9.40 1.85 -2.20 3.95 -4.65 4.70 -5.50 0.70 -0.80 2.10 -2.50 3.05 -3.75 0.95 -1.25 1.85 -2.35 2.05 -2.50 1.60 -1.25 4.60 -6.35 6.70 -11.50 4.45 -10.90 9.95 -19.05 16.05 -23.85 4 -3.15 10.55 -4.15 15.45 -2.40 5.65 2 8.05 5.10 7.90 10.20 -0.10 5.25 -2.70 10 -8.80 16.15 -6 6.05 -10.65 9.30 -16.60 11.65 -3.95 1.55 -4.25 1.85 -4.25 4.10 0 0.90 -0.70 5.05 -1.55 9.25 -1.90 9.45 -1.85 13.20 0.20 15.25 l1.30 1.35 2.75 -0.85 c1.55 -0.50 4.15 -1.95 5.85 -3.25 3.55 -2.70 13.95 -13 13.95 -13.80 0 -0.70 2.45 -4.30 4.70 -7.05 0.95 -1.10 2.70 -3.20 3.90 -4.70 3.05 -3.85 3.45 -3.85 3.05 0.30 -0.30 3.25 -1.25 6.15 -2.05 6.15 -0.20 0 -0.75 0.60 -1.20 1.40 -0.45 0.75 -1.85 2.50 -3.10 3.85 -1.30 1.40 -4.25 5.25 -6.65 8.65 -6.55 9.35 -14.05 15.85 -18.65 16.30 -1.25 0.10 -2.80 0.10 -3.50 -0.05z m6.65 -43.45 c3.65 -1.90 8.75 -6.60 12.80 -11.85 2.80 -3.60 3.25 -5 3.30 -10.90 0 -3.05 -1.05 -4.95 -2.80 -4.95 -1.30 0 -4.95 4.45 -7.55 9.15 -2.35 4.15 -7.90 17.35 -7.90 18.65 0 0.90 0.20 0.90 2.15 -0.10z"
       id="path37" />
  </g>
  <g
     fill="#323232"
     id="g46">
    <path
       d="M70.55 336 c-0.20 -0.40 -0.35 -28.10 -0.35 -61.50 l0.05 -60.75 35.90 0 c31.45 0 36 0.10 36.35 0.75 0.20 0.40 0.35 5.70 0.30 11.75 l-0.10 10.95 -22 0.05 -21.95 0 0 12.75 0 12.75 19.50 0.25 19.45 0.25 0.05 11 0 11 -19.50 0.25 c-10.70 0.15 -19.55 0.35 -19.60 0.40 -0.30 0.20 -0.10 25.40 0.15 26.45 l0.30 1.15 21.85 0.10 21.80 0.15 0 11.40 c0.05 6.25 -0.05 11.35 -0.25 11.40 -0.15 0.05 -16.30 0.10 -35.90 0.15 -31.60 0.05 -35.70 0 -36.05 -0.70z"
       id="path38" />
    <path
       d="M148.20 336.25 c-0.10 -0.25 -0.15 -27.95 -0.10 -61.50 l0.15 -61 27.75 0.05 c29.15 0.10 30.20 0.15 38.40 2.50 5.35 1.50 13.40 6.45 16.80 10.20 7.10 8 10.45 20.10 8.80 31.75 -1.45 9.85 -7.05 19.15 -14.60 24.20 -2.65 1.75 -9.30 5.05 -10.25 5.05 -1.30 0 -1.10 1.10 1 4.85 2.20 3.90 9.55 16.90 17.45 30.90 7.30 12.95 7.45 13.25 6.80 13.30 -0.35 0 -7.50 0.10 -15.80 0.15 l-15.20 0.15 -1.15 -1.80 c-0.60 -1 -4 -7.20 -7.50 -13.80 -13 -24.35 -16.40 -30.50 -16.95 -30.90 -0.30 -0.20 -2 -0.30 -3.80 -0.25 l-3.25 0.15 -0.25 23.25 -0.25 23.25 -13.95 0 c-9 0 -14 -0.15 -14.10 -0.50z m51.55 -67.30 c7.40 -1.40 11.75 -7 11.75 -15.20 0 -6.85 -2.80 -11.55 -8.45 -14.20 -2.75 -1.25 -2.95 -1.30 -14.55 -1.30 l-11.75 0 -0.15 15 c-0.05 8.25 0 15.30 0.15 15.65 0.20 0.50 2.50 0.60 10.35 0.60 5.60 -0.05 11.25 -0.30 12.65 -0.55z"
       id="path39" />
    <path
       d="M245.45 336.45 c-0.25 -0.15 -0.40 -25.15 -0.35 -61.50 l0.15 -61.20 27.75 0.05 c28.85 0.05 29.35 0.05 37.75 2.25 5.10 1.35 12 5.30 16.10 9.30 8.90 8.60 12.80 23.80 9.40 36.50 -3.05 11.35 -9 18.65 -19.45 23.70 -2.20 1.10 -4.30 1.95 -4.60 1.95 -1.85 0 -1.65 0.40 7.05 15.75 1.90 3.30 4.35 7.70 5.50 9.75 1.20 2.05 4.60 8.15 7.65 13.50 4.60 8.15 5.40 9.80 4.70 10.05 -1.05 0.35 -30.95 0.30 -31.25 -0.05 -0.10 -0.15 -1.55 -2.85 -3.20 -6 -1.65 -3.15 -3.55 -6.75 -4.25 -8 -0.70 -1.25 -2.45 -4.50 -3.90 -7.25 -1.45 -2.75 -4.30 -8.05 -6.30 -11.75 -2 -3.70 -4.40 -8.20 -5.40 -10 l-1.75 -3.25 -3.35 -0.15 c-2.35 -0.10 -3.50 0.05 -3.75 0.50 -0.25 0.35 -0.45 10.90 -0.45 23.40 l0 22.80 -13.80 -0.05 c-7.60 0 -14 -0.15 -14.25 -0.30z m52.25 -67.65 c3.20 -0.75 4.80 -1.75 7.15 -4.25 2.40 -2.60 3.40 -5.95 3.35 -11.30 0 -7 -2.40 -11 -7.95 -13.60 -2.95 -1.35 -3.20 -1.35 -14.85 -1.55 l-11.90 -0.20 0 14.70 c0 8.05 0.15 15.15 0.30 15.80 l0.35 1.15 10.40 -0.05 c6.50 -0.05 11.40 -0.30 13.15 -0.70z"
       id="path40" />
    <path
       d="M342.20 336.25 c-0.10 -0.25 -0.15 -27.95 -0.10 -61.50 l0.15 -61 35.75 -0.05 c19.65 0 36 0.05 36.25 0.15 0.30 0.10 0.50 4.35 0.50 11.45 0 9.45 -0.15 11.35 -0.75 11.65 -0.40 0.25 -10.25 0.40 -21.90 0.35 -20.75 -0.05 -21.15 -0.05 -21.40 0.95 -0.10 0.55 -0.15 6.30 -0.10 12.75 l0.15 11.75 19.45 0.25 19.50 0.25 -0.10 3.75 c-0.05 2.05 -0.05 7.05 -0.10 11.15 l0 7.35 -18.70 0 c-10.30 0 -19.05 0.15 -19.50 0.30 -0.70 0.25 -0.80 1.90 -0.80 13.40 0 7.15 0.20 13.35 0.40 13.65 0.30 0.50 5.50 0.65 22.15 0.75 l21.70 0.15 0 10.75 c0.05 5.90 -0.10 11.10 -0.25 11.50 -0.20 0.65 -4.70 0.75 -36.20 0.75 -24.35 0.05 -36 -0.15 -36.10 -0.50z"
       id="path41" />
    <path
       d="M374.75 190.20 c-3.70 -0.60 -11.35 -3.35 -14.90 -5.45 -4.70 -2.75 -10.35 -8.35 -13 -12.80 -4.40 -7.55 -6.35 -15.35 -6.40 -25.70 0 -9.30 2.15 -18 6.15 -24.70 4.70 -7.90 13.05 -14.25 22.15 -16.95 5.40 -1.55 6.55 -1.70 12.65 -1.70 7.05 0.05 9.95 0.40 14.10 1.70 13.65 4.35 22.75 13.95 26.35 27.85 1.50 5.75 2.20 18 1.15 19.30 -0.55 0.65 -4.35 0.75 -29.05 0.75 -17.25 0 -28.50 0.20 -28.70 0.45 -0.60 1 1.35 7.60 2.90 9.90 1.95 2.90 5.20 5.40 8 6.25 3.15 0.90 8.90 0.65 11.55 -0.55 2.35 -1 6.05 -4.45 6.55 -6.10 0.30 -0.90 0.95 -0.95 13.55 -0.95 14.95 0 13.90 -0.40 12.10 4.35 -2.55 6.95 -7.55 13.20 -13.90 17.60 -3.75 2.60 -6.05 3.70 -11 5.30 -3.70 1.20 -5.20 1.40 -11.50 1.50 -4 0.10 -7.90 0.05 -8.75 -0.05z m23.15 -52.90 c0.25 -2.25 -1.80 -7.10 -4 -9.35 -3 -3.05 -6.65 -4.55 -11.35 -4.60 -2.10 0 -4.85 0.25 -6.10 0.60 -3.05 0.85 -6.85 3.75 -8.55 6.55 -1.50 2.50 -2.70 6.45 -2.30 7.55 0.25 0.60 3 0.70 16.20 0.70 l15.95 0 0.15 -1.45z"
       id="path42" />
    <path
       d="M70.70 188.90 c-0.10 -0.15 -0.20 -24.35 -0.25 -53.70 l0 -53.45 31.65 0 31.65 0 0.15 10.15 0.10 10.10 -8.60 0.05 c-9 0.05 -29.35 0.30 -30.05 0.40 -0.20 0.05 -0.30 5.05 -0.25 11.15 l0.15 11.15 16.75 0.05 c9.20 0.05 16.90 0.10 17.15 0.15 0.20 0.05 0.30 4.40 0.25 9.70 l-0.15 9.60 -16.50 0.05 c-9.05 0.05 -16.80 0.10 -17.15 0.10 -0.50 0.10 -0.60 2.75 -0.50 12.25 l0.15 12.10 19.25 0.25 19.25 0.25 0 10 0 10 -31.40 0 c-17.30 0 -31.55 -0.15 -31.65 -0.35z"
       id="path43" />
    <path
       d="M139.40 189.10 c-0.85 -0.15 -0.90 -2.60 -0.90 -42.65 l0 -42.45 12.25 0 c6.75 0 12.25 0.15 12.30 0.40 0 0.20 0.10 2.55 0.15 5.20 0.05 2.65 0.20 5 0.35 5.15 0.15 0.15 1.90 -1.30 3.90 -3.25 6.45 -6.25 13.75 -8.85 23.55 -8.35 16.25 0.85 26.85 11.30 29.55 29.10 0.60 3.95 1.25 53.85 0.75 56 -0.25 1 -0.65 1.05 -12.55 1.05 -8.50 0.05 -12.25 -0.15 -12.30 -0.50 -0.05 -0.30 -0.10 -11.35 -0.15 -24.55 -0.10 -13.20 -0.30 -25 -0.50 -26.25 -1.05 -5.75 -4.80 -10.55 -9.80 -12.50 -3.95 -1.55 -10.10 -1.25 -14 0.70 -3.30 1.70 -4.60 3.10 -6.60 7.20 -2.05 4.20 -2.20 7 -2.15 32.60 0.05 11.70 -0.05 21.70 -0.25 22.20 -0.30 0.95 -0.95 1 -11.55 1.05 -6.15 0 -11.60 -0.05 -12.05 -0.15z"
       id="path44" />
    <path
       d="M265.65 189 c-0.90 -0.25 -0.90 -2.05 -0.90 -53.45 0.05 -52.40 0.05 -53.20 1 -53.55 0.55 -0.15 11.25 -0.25 23.75 -0.20 25.15 0.10 28.55 0.40 34.65 3.15 8.05 3.60 12.80 8 16.15 14.80 2.95 6.10 3.90 10.90 3.55 18.25 -0.40 9.30 -3.15 15.80 -9.35 22.05 -3.05 3.10 -4.65 4.25 -8.50 6.10 -7.35 3.60 -11.40 4.15 -33.65 4.80 l-2.70 0.05 0.05 19.10 0.05 19.15 -11.60 0 c-6.35 0 -11.95 -0.10 -12.50 -0.25z m44.50 -59.75 c4 -1.25 7 -4.25 7.90 -7.85 1.55 -6.40 0 -13.30 -3.65 -16.05 -3.50 -2.70 -4.95 -3 -14.55 -3.05 -4.95 0 -9.20 0.10 -9.50 0.30 -0.45 0.25 -0.60 4.25 -0.65 13.75 -0.05 7.35 0 13.50 0.05 13.65 0.10 0.15 4.05 0.25 8.85 0.20 6.95 0 9.20 -0.20 11.55 -0.95z"
       id="path45" />
    <path
       d="M239 159.05 c-4.10 -2.20 -6 -5.30 -6 -9.80 0 -4.45 1.65 -7.35 5.50 -9.70 2.70 -1.65 7.15 -1.45 10.10 0.40 3.85 2.45 5.75 6.35 5.10 10.65 -0.45 3 -1.30 4.50 -3.95 6.80 -3.10 2.75 -7.40 3.40 -10.75 1.65z"
       id="path46" />
  </g>
  <g
     fill="#4b4b4a"
     id="g59">
    <path
       d="M106.25 337 l-36.50 -0.25 0 -61.65 0 -61.60 36.65 0 36.60 0 0 12 0 12 -22 0 -22 0 0 12.50 0 12.50 19.50 0 19.50 0 0 11.75 0 11.75 -19.50 -0.10 -19.45 -0.15 -0.15 13.65 -0.15 13.60 22.15 0 22.10 0 0 12.25 c0 6.75 -0.05 12.20 -0.10 12.15 -0.10 -0.10 -16.55 -0.25 -36.65 -0.40z m36.25 -11.75 l0 -11.25 -21.60 0 c-11.90 0 -21.95 -0.20 -22.30 -0.40 -0.45 -0.35 -0.60 -3.55 -0.50 -14.40 l0.15 -13.95 19.60 -0.15 19.65 -0.10 0 -10.75 0 -10.75 -19.60 -0.10 -19.65 -0.15 -0.15 -13.10 -0.10 -13.15 22.25 0 22.25 0 0 -11.50 0 -11.50 -36 0 -36 0 0 61.25 0 61.25 36 0 36 0 0 -11.25z"
       id="path47" />
    <path
       d="M225 337.10 l-16.25 -0.10 -2.05 -3.90 c-2.50 -4.70 -13.10 -24.60 -18.60 -34.85 l-4 -7.50 -3.55 -0.15 -3.55 -0.15 0 23.30 0 23.25 -14.75 0 -14.75 0 0 -61.80 0 -61.75 29.40 0.20 c28.30 0.15 29.50 0.20 33.80 1.30 19.25 4.75 30 18.30 29.90 37.80 -0.05 15.85 -8.70 28.75 -22.85 34.10 l-3.55 1.35 5.05 9.05 c2.75 4.95 5.40 9.55 5.80 10.25 0.75 1.15 6.30 11 13.55 24 1.60 2.85 2.85 5.35 2.80 5.50 -0.10 0.15 -7.45 0.20 -16.40 0.10z m-49 -23.80 c0 -20.70 0.10 -23.25 0.80 -23.50 1.40 -0.55 6.50 -0.30 7.30 0.35 0.95 0.80 2.50 3.50 9.15 16.10 3.65 6.90 13.50 25.30 15.10 28.15 l1.20 2.10 15.50 0 15.50 0 -0.60 -1.10 c-0.35 -0.65 -1.90 -3.40 -3.45 -6.15 -1.60 -2.75 -3.90 -6.80 -5.10 -9 -1.25 -2.20 -3.60 -6.35 -5.25 -9.25 -9.25 -16.30 -12.65 -22.45 -12.65 -22.90 0 -0.30 0.85 -0.80 1.90 -1.15 4.90 -1.60 10.65 -5.10 14.35 -8.75 7.15 -7.20 10.70 -17 10.10 -28 -0.50 -8.55 -2.95 -15.55 -7.55 -21.45 -4.95 -6.30 -12.50 -10.75 -22.15 -13.10 l-5.40 -1.30 -28.10 -0.20 -28.15 -0.25 0 61.30 0 61.30 13.75 0 13.75 0 0 -23.20z"
       id="path48" />
    <path
       d="M176.65 269.70 c-0.50 -0.20 -0.65 -3.90 -0.65 -16 l0 -15.70 1.25 -0.30 c0.65 -0.15 6.10 -0.20 12.10 -0.10 10.60 0.20 11 0.25 13.90 1.60 5.10 2.35 7.35 5.30 8.30 11.10 1.10 6.70 -0.90 13.15 -5.15 16.35 -3.45 2.65 -5.20 3 -17.65 3.15 -6.30 0.10 -11.80 0.05 -12.10 -0.10z m26.95 -2.35 c5 -2.45 7.40 -6.85 7.40 -13.50 0 -4.50 -0.60 -6.65 -2.70 -9.70 -1.20 -1.75 -2.45 -2.80 -4.60 -3.90 l-2.95 -1.50 -11.85 -0.15 -11.90 -0.15 0 15.30 0 15.30 11.90 -0.15 c11.85 -0.15 11.85 -0.15 14.70 -1.55z"
       id="path49" />
    <path
       d="M322 337.10 l-16.30 -0.10 -0.95 -1.90 c-0.55 -1 -2.15 -4 -3.55 -6.60 -1.40 -2.60 -3.95 -7.45 -5.70 -10.75 -1.75 -3.30 -4.20 -7.90 -5.50 -10.25 -1.30 -2.35 -3.85 -7.10 -5.70 -10.60 l-3.35 -6.40 -3.60 0 -3.60 0 0.15 23.25 0.10 23.25 -14.75 0 -14.75 0 0 -61.75 0 -61.75 27.45 0 c28.55 0 31.60 0.20 38.95 2.30 7.65 2.25 14.35 6.70 18.95 12.50 8.45 10.80 10.30 27.70 4.45 40.45 -3.75 8.25 -12.15 15.75 -20.60 18.50 l-2.60 0.85 2.15 3.80 c1.20 2.10 3.50 6.20 5.10 9.10 1.65 2.90 5.10 8.95 7.60 13.50 2.55 4.55 5.50 9.70 6.50 11.50 1.05 1.80 2.85 4.90 4 6.90 1.15 2 2.05 3.80 1.95 4 -0.10 0.20 -7.45 0.30 -16.40 0.20z m-49 -23.80 c0 -20.70 0.10 -23.25 0.80 -23.50 1.40 -0.55 6.50 -0.30 7.30 0.35 0.40 0.30 3.25 5.20 6.25 10.85 10.85 20.15 13.35 24.80 16.05 29.90 1.45 2.85 2.95 5.25 3.25 5.40 0.35 0.10 7.40 0.15 15.70 0.10 l15.10 -0.15 -3.30 -5.75 c-1.80 -3.15 -3.95 -7 -4.75 -8.50 -0.85 -1.50 -2.35 -4.20 -3.40 -6 -1.65 -2.80 -9.50 -16.65 -14.05 -24.80 -0.80 -1.40 -1.45 -2.80 -1.45 -3.10 0 -0.30 0.85 -0.80 1.90 -1.15 4.90 -1.60 10.65 -5.10 14.35 -8.75 9.90 -9.90 12.85 -25.20 7.75 -39.90 -3.90 -11.40 -13.55 -19.30 -27.40 -22.65 -5.35 -1.30 -5.35 -1.30 -33.45 -1.50 l-28.15 -0.25 0 61.30 0 61.30 13.75 0 13.75 0 0 -23.20z"
       id="path50" />
    <path
       d="M273.60 269.60 c-0.45 -0.30 -0.60 -3.90 -0.50 -16.15 l0.15 -15.70 12 0.05 c11.95 0 12 0 15 1.35 5.80 2.65 8.50 7.30 8.45 14.60 -0.05 5.45 -1.20 8.80 -4.15 11.75 -3.75 3.70 -5.35 4.10 -18.80 4.35 -6.30 0.10 -11.80 0 -12.15 -0.25z m27 -2.25 c5.30 -2.60 7.15 -6.20 7.15 -13.85 0 -4.45 -0.15 -5.55 -1.10 -7.25 -1.60 -2.95 -3.85 -5.15 -6.50 -6.40 -2.20 -1 -3.30 -1.10 -14.25 -1.25 l-11.85 -0.15 -0.15 15.30 -0.15 15.30 12 -0.15 c12 -0.15 12 -0.15 14.85 -1.55z"
       id="path51" />
    <path
       d="M341.50 275.40 l0 -61.90 36.75 0 36.75 0 0 12 0 12 -22.10 0 -22.15 0 0.15 12.50 0.15 12.50 19.45 0 19.50 0 0 11.75 0 11.75 -19.50 -0.10 -19.45 -0.15 -0.15 13.65 -0.15 13.60 22.15 0 22.10 0 0 12.15 0 12.10 -36.75 0 -36.75 0 0 -61.85z m73 49.85 l0 -11.25 -21.60 0 c-11.90 0 -21.95 -0.20 -22.30 -0.40 -0.45 -0.35 -0.60 -3.55 -0.50 -14.40 l0.15 -13.95 19.50 -0.25 19.50 -0.25 0 -10.60 0 -10.65 -19.50 -0.10 -19.50 -0.15 -0.15 -13.10 -0.10 -13.15 22.25 0 22.25 0 0 -11.50 0 -11.50 -36 0 -36 0 0 61.25 0 61.25 36 0 36 0 0 -11.25z"
       id="path52" />
    <path
       d="M375.50 190.50 c-4.25 -0.55 -11 -2.70 -14.50 -4.65 -10.15 -5.65 -16.90 -14.95 -19.85 -27.35 -1.35 -5.75 -1.20 -18.75 0.25 -24.70 3.70 -14.95 13.45 -25.40 27.50 -29.60 5.30 -1.55 15.40 -2.15 20.90 -1.25 11.50 1.95 20.75 7.75 26.80 16.80 5.35 8.05 7.30 16.25 7 29.65 l-0.10 3.60 -29.05 0 -29.05 0 0.35 2.35 c0.70 4.60 2.15 7.45 5.15 10.15 2.95 2.60 4.65 3.35 8.85 3.85 5.70 0.65 11.65 -2.15 14 -6.50 l1 -1.85 13.35 0 c11.50 0 13.40 0.10 13.40 0.75 0 1.35 -2.50 7.35 -4.30 10.35 -6.85 11.25 -18.85 18.05 -32.90 18.60 -3.05 0.15 -7 0.05 -8.80 -0.20z m20 -2.40 c6.55 -2.15 10.50 -4.60 15.50 -9.60 3.55 -3.50 4.70 -5.05 6.65 -9 1.30 -2.60 2.50 -5.35 2.65 -6.10 l0.30 -1.40 -12.65 0 -12.70 0 -1.75 2.35 c-0.95 1.30 -2.85 3.05 -4.20 3.90 -2.35 1.45 -2.70 1.50 -8 1.50 -4.45 0 -5.90 -0.20 -7.25 -0.90 -2.50 -1.40 -6 -4.80 -7.15 -7 -1.10 -2.15 -2.60 -8.80 -2.15 -9.30 0.20 -0.15 13.30 -0.40 29.15 -0.55 l28.85 -0.25 -0.05 -7 c-0.05 -13.20 -3.40 -21.95 -11.45 -30.05 -6.80 -6.85 -14.10 -10.20 -24.30 -11.20 -9.35 -0.95 -17.75 0.55 -25.70 4.65 -6 3.10 -12.25 9.50 -15.40 15.85 -4.05 8.30 -5.55 16.90 -4.75 27.40 0.50 6.65 1.55 10.80 4.15 16.35 5.50 11.80 15.80 19.40 29.75 21.95 0.70 0.10 4.50 0.15 8.50 0.10 6.55 -0.15 7.70 -0.30 12 -1.70z"
       id="path53" />
    <path
       d="M365.20 136.65 c0.65 -5.05 4.40 -10.10 9.20 -12.45 1.50 -0.75 3 -0.95 7.60 -0.95 5.60 0 5.85 0.05 8.60 1.65 4.65 2.65 7.40 6.95 7.55 11.60 l0.10 2.25 -16.70 0.15 -16.70 0.10 0.35 -2.35z m32.25 -0.70 c-2.30 -14.45 -23.50 -17.15 -29.85 -3.85 -0.85 1.75 -1.65 3.90 -1.80 4.80 l-0.25 1.60 16.15 0 16.15 0 -0.40 -2.55z"
       id="path54" />
    <path
       d="M70 135.50 l0 -54 32.25 0 32.25 0 0 10.50 0 10.50 -19.60 0 -19.65 0 0.15 11 0.15 11 17.20 0 17.25 0 0 10 0 10 -17.25 0 -17.25 0 0 12 0 12 19.50 0 19.50 0 0 10.50 0 10.50 -32.25 0 -32.25 0 0 -54z m63.50 43.75 l0 -9.75 -18.95 0 c-15.45 0 -19.05 -0.15 -19.50 -0.70 -0.40 -0.45 -0.55 -4.25 -0.45 -12.60 l0.15 -11.95 17.15 -0.15 17.10 -0.10 0 -9.50 0 -9.50 -17.10 -0.10 -17.15 -0.15 -0.15 -11.35 -0.10 -11.40 6.10 -0.05 c3.40 -0.05 8.40 -0.10 11.15 -0.20 2.75 -0.05 8.75 -0.15 13.40 -0.20 l8.35 -0.05 0 -9.75 0 -9.75 -31.35 0 -31.40 0 0.10 53.35 c0.10 29.40 0.15 53.45 0.15 53.55 0 0.05 14.05 0.10 31.25 0.10 l31.25 0 0 -9.75z"
       id="path55" />
    <path
       d="M138 146.50 l0 -43 12.90 0 12.85 0 -0.15 5.80 -0.15 5.80 2.75 -3 c6.50 -7 16.90 -10.50 27.25 -9.15 12.20 1.55 20.90 8.55 25.10 20.10 2.45 6.75 2.60 8.65 2.65 38.55 l0.05 27.90 -12.75 0 -12.75 0 0 -25.65 c0 -22.80 -0.10 -25.90 -0.85 -28.35 -1.25 -4 -4 -7.15 -7.90 -9.10 -2.90 -1.50 -3.65 -1.65 -7.30 -1.60 -5.50 0 -9.55 1.90 -12.35 5.75 -3.60 4.95 -3.60 5.10 -3.60 33.55 l0 25.40 -12.85 0 -12.90 0 0 -43z m25.10 16.40 l0.15 -26.15 1.35 -2.85 c1.95 -4.25 3.80 -6.30 7.15 -8.05 2.80 -1.50 3.35 -1.60 8 -1.60 4.45 0 5.30 0.15 7.85 1.40 3.70 1.80 6.55 5.35 7.90 9.70 0.95 3.05 1 4.65 1 28.45 l0 25.20 12 0 12 0 0 -26.70 c0 -16.55 -0.20 -28.20 -0.55 -30.65 -1.05 -7.65 -4.05 -14.30 -8.60 -19.05 -5.75 -5.95 -11.60 -8.50 -20.60 -8.95 -4.60 -0.25 -6.25 -0.10 -9.70 0.80 -5.45 1.35 -9.95 3.90 -13.85 7.85 -1.75 1.75 -3.40 3.20 -3.65 3.20 -0.35 0 -0.55 -2 -0.55 -5.50 l0 -5.50 -12 0 -12 0 0 42.25 0 42.25 12 0 11.95 0 0.15 -26.10z"
       id="path56" />
    <path
       d="M264.50 135.45 l0 -54 25.15 0.20 c27.30 0.20 28.70 0.30 35.10 3.15 11.25 5 17.75 13.95 19.35 26.50 1.70 13.25 -3.55 25.80 -13.60 32.70 -7.50 5.10 -14.15 6.60 -29.85 6.70 l-10.65 0.05 0 19.40 0 19.35 -12.75 0 -12.75 0 0 -54.05z m25 34.70 c-0.05 -10.40 -0.05 -19.15 -0.05 -19.45 0.05 -0.40 3.70 -0.65 12.45 -0.85 13.50 -0.30 17.05 -0.80 22.45 -3.30 9.20 -4.30 14.30 -10 17.65 -19.55 1.70 -4.80 2 -14.35 0.60 -19.80 -1.65 -6.50 -3.80 -10.45 -8.10 -14.75 -3.05 -3.05 -4.65 -4.20 -8.50 -6.05 -7.85 -3.80 -9.50 -4 -37.10 -4.30 l-23.90 -0.20 0 53.55 0 53.55 12.25 0 12.30 0 -0.05 -18.85z"
       id="path57" />
    <path
       d="M289.40 130.15 c-0.20 -0.30 -0.10 -25.90 0.05 -27.80 0.05 -0.25 4.60 -0.35 10.20 -0.25 9.50 0.15 10.25 0.20 12.35 1.35 2.95 1.50 4.35 2.85 5.65 5.30 0.95 1.70 1.10 2.80 1.10 7.50 0 4.70 -0.15 5.80 -1.10 7.50 -1.30 2.45 -2.70 3.80 -5.65 5.30 -2.10 1.15 -2.85 1.20 -12.30 1.35 -5.55 0.10 -10.20 0 -10.30 -0.25z m22.20 -1.80 c4.55 -2.25 6.90 -6.35 6.90 -12.10 0 -5.85 -2.60 -10.20 -7.35 -12.40 -2.15 -0.95 -3.45 -1.10 -11.75 -1.25 l-9.40 -0.20 0 13.85 0 13.85 9.40 -0.15 c9.05 -0.20 9.45 -0.25 12.20 -1.60z"
       id="path58" />
    <path
       d="M240.95 160.05 c-4.65 -0.90 -8.45 -5.80 -8.45 -10.80 0 -9.10 10.15 -14.35 17.20 -8.95 3.20 2.45 4.50 5.40 4.20 9.60 -0.30 4.15 -1.55 6.30 -4.75 8.40 -2.55 1.70 -5.30 2.30 -8.20 1.75z m5.05 -0.90 c2.45 -0.45 6.25 -4.35 7 -7.15 1.15 -4.40 -0.55 -8.95 -4.30 -11.45 -2 -1.30 -2.85 -1.55 -5.30 -1.55 -3.50 0 -5.10 0.75 -7.55 3.45 -2 2.25 -2.60 4.30 -2.25 8.35 0.50 5.90 6.05 9.65 12.40 8.35z"
       id="path59" />
  </g>
  <g
     fill="#dc2e30"
     id="g65">
    <path
       d="M167.85 428.30 c-4.20 -1.55 -9.25 -5.90 -11.20 -9.60 -1.85 -3.55 -2.25 -7.15 -1.40 -12.65 0.75 -5.10 1.65 -8.15 3.10 -10.60 1.50 -2.55 1.65 -1.55 0.15 1.45 -1 2.10 -1.50 4 -1.75 7.10 -0.60 7.40 -0.70 12.15 -0.25 12.95 0.35 0.55 0.40 0.35 0.20 -0.70 -0.25 -1.50 0.20 -4.35 2.20 -13.75 0.55 -2.60 1.15 -5.65 1.35 -6.75 0.20 -1.10 0.50 -1.70 0.60 -1.35 0.30 0.85 -0.60 6.10 -2.15 12.60 -1.85 7.60 -1.95 10.50 -0.25 12.95 1.70 2.60 4.65 5.05 8.05 6.85 2.10 1.05 3.45 1.40 5.80 1.45 2.70 0 3.35 -0.20 5.75 -1.80 4.70 -3.15 7.85 -6.40 13 -13.40 2.75 -3.75 6.10 -8.15 7.50 -9.80 5.75 -6.90 5.65 -6.75 6 -10.20 0.20 -1.80 0.30 -3.35 0.20 -3.45 -0.15 -0.15 -4 4.70 -8.60 10.80 -1.20 1.55 -2.15 3.05 -2.15 3.40 0 1 -8.90 10.05 -12.95 13.15 -6.60 5 -9.45 5.95 -11.80 3.95 -2.10 -1.80 -2.25 -6.25 -0.50 -14.65 0.75 -3.55 1.55 -7.90 1.75 -9.65 0.20 -1.75 0.60 -3.35 0.80 -3.60 0.25 -0.20 2.20 -1.10 4.35 -1.95 4.90 -1.95 8.05 -4 13.05 -8.55 5.80 -5.30 8.90 -9.20 10.30 -12.95 3.35 -8.80 0.25 -14.10 -9.30 -16.10 -7.55 -1.55 -15.05 3.65 -22.60 15.75 -1.50 2.35 -3.70 6.80 -4.90 9.90 -1.25 3.10 -2.45 6.10 -2.75 6.65 -1.05 2.10 -16.45 20.75 -20.55 24.90 -2.25 2.25 -3.20 2.85 -4.40 2.85 -2 0 -2.50 -1.35 -2.30 -6.10 0.20 -4 1.55 -8.50 4.80 -15.95 8 -18.25 9.70 -28.65 5.35 -33 -1.40 -1.45 -1.75 -1.55 -3.90 -1.30 -3.20 0.40 -5.80 1.80 -8.55 4.70 -3.80 3.90 -11.95 15.55 -14.60 20.70 -2.40 4.70 -4.75 8.40 -3.95 6.25 0.15 -0.55 1.20 -2.55 2.25 -4.45 1.05 -1.90 1.90 -3.75 1.90 -4.10 0 -1.05 11.35 -16.55 14.30 -19.50 3.85 -3.90 10.10 -5.40 12.90 -3.20 1.95 1.50 3 5.70 2.65 10.50 -0.25 4.15 -3.45 14.20 -7.10 22.35 -2.35 5.25 -5.75 14.60 -5.30 14.60 0.15 0 0.25 1.70 0.15 3.75 -0.25 4.35 0.30 4.95 3 3.40 1.55 -0.90 10.40 -11 15.75 -17.90 1.25 -1.65 2.55 -3.20 2.90 -3.50 1 -0.90 4.75 -6.05 4.75 -6.60 0 -1.40 4.40 -11.05 7.15 -15.60 3.30 -5.50 9.35 -12.30 12.30 -13.80 5.65 -2.85 11.45 -2.90 16.85 -0.10 5.95 3.10 6.85 11.30 2.10 18.60 -2.40 3.75 -3.65 5.15 -8.30 9.40 -5.65 5.20 -7.95 6.75 -13.35 8.90 -4.80 1.90 -5.10 2.25 -5.20 5.95 -0.05 1 -0.60 4.25 -1.30 7.25 -1.50 6.65 -1.75 13.20 -0.55 15.05 2.25 3.40 9 -0.30 18.95 -10.45 2.70 -2.70 5.20 -5.65 5.55 -6.55 0.35 -0.85 2.15 -3.40 3.95 -5.70 1.85 -2.30 4.90 -6.30 6.85 -8.90 1.95 -2.60 3.70 -4.70 3.85 -4.70 0.15 0 -0.10 0.50 -0.55 1.15 -1.55 2.15 -2.25 4.40 -2.60 8.15 l-0.35 3.75 -4.05 5.05 c-5.95 7.35 -7.05 8.80 -9.65 12.65 -3.35 4.90 -7.60 9.25 -11.70 12.05 -3.10 2.15 -3.85 2.40 -6.60 2.55 -1.80 0.10 -3.90 -0.15 -5 -0.55z"
       id="path60" />
    <path
       d="M130.10 421.65 c-1.75 -0.70 -3.30 -1.65 -3.50 -2.10 -0.15 -0.45 -0.55 -1 -0.95 -1.20 -0.35 -0.20 -1.10 -1.30 -1.70 -2.45 -2.55 -5.05 -3.25 -15.65 -1.45 -22.70 1.40 -5.35 3.40 -10.85 4.15 -11.45 0.75 -0.60 1.85 -3 1.85 -4.05 0 -0.45 1 -3.40 2.25 -6.55 1.25 -3.20 2.20 -5.90 2.05 -6 -0.20 -0.25 -5.15 6.55 -7.90 10.85 -0.95 1.50 -2.55 3.65 -3.55 4.75 -2.55 2.75 -5.15 6.90 -9 14.25 -3.60 6.85 -5.25 9 -6.85 9 -0.60 0 -2.10 -1 -3.40 -2.20 l-2.35 -2.25 0.05 -3.40 c0.10 -8.70 1.60 -15.10 5.60 -23.65 3.60 -7.65 5.90 -14.90 5.05 -15.75 -0.40 -0.35 -0.80 -0.10 -1.35 0.75 -0.50 0.65 -1.65 2.15 -2.70 3.35 -3.45 4 -7.35 10.40 -12.15 20.05 -6.80 13.70 -13.25 27.55 -13.25 28.55 0 2.25 -2 2.55 -5.45 0.85 -3.35 -1.75 -5.35 -4.15 -6 -7.40 -0.90 -4.50 0.05 -15.20 1.90 -21.25 2.05 -6.85 4.30 -12.40 6.10 -15.20 0.80 -1.25 1.45 -2.55 1.45 -2.85 0 -0.30 0.35 -0.90 0.80 -1.35 1.45 -1.45 4.45 0.35 6.20 3.80 0.50 0.95 1.30 2.05 1.70 2.40 0.45 0.40 0.80 1.25 0.80 2 0 1.40 -0.45 2.25 -3.60 6.35 -1.10 1.50 -1.90 3.10 -1.90 3.90 0 0.70 -0.45 2.60 -1 4.20 -1.95 5.50 -2.55 8.50 -2.20 11.20 0.35 2.50 0.35 2.50 1.05 1.25 0.35 -0.70 1.30 -3.10 2.15 -5.30 0.80 -2.20 1.65 -4.40 1.95 -4.90 0.25 -0.50 2.20 -4.40 4.30 -8.65 3.60 -7.30 13.40 -22.90 16.90 -26.85 2 -2.25 3.85 -3.15 6.50 -3.15 4.45 0 8.10 4.30 8.05 9.50 0 2.10 -0.45 3.75 -1.90 7 -2.05 4.50 -4.20 10.70 -6.90 19.75 -0.90 3.05 -1.70 5.15 -1.80 4.75 -0.20 -1.20 5.15 -18.50 6.90 -22.30 3.40 -7.20 3.85 -10.45 1.85 -13.95 -3.40 -6.05 -9.45 -5.45 -14.10 1.40 -8.65 12.60 -11.10 16.50 -14.15 22.60 -2.25 4.45 -6.60 13.75 -6.60 14.05 0 1.10 -3.25 7.70 -3.80 7.70 -1.75 0 -1.50 -6.70 0.45 -12.50 0.70 -2.05 1.35 -4.60 1.50 -5.65 0.20 -1.20 1.30 -3.25 3.05 -5.65 1.55 -2.10 2.80 -4.05 2.80 -4.35 0 -0.90 -4.45 -7.30 -5.45 -7.85 -1.35 -0.70 -2.55 -0.65 -2.55 0.15 0 0.35 -0.65 1.70 -1.50 3 -1.95 3.10 -4.05 8.30 -6.30 15.60 -1.70 5.50 -1.85 6.65 -2.10 13.55 -0.20 6.90 -0.15 7.70 0.80 9.55 1.25 2.40 3.10 4.05 6 5.35 2.45 1.10 3.30 0.70 3.75 -1.85 0.25 -1.50 11.70 -25.60 16.55 -34.85 2.05 -3.90 5 -8.35 9.95 -14.95 2.05 -2.70 3.45 -3.20 4.35 -1.55 0.65 1.25 -0.65 6.35 -3.60 13.75 -1.10 2.75 -2.70 6.70 -3.50 8.75 -1.30 3.15 -3.35 10.75 -4.25 15.60 -0.40 2.10 0.20 3.75 2.15 5.90 1.30 1.45 2.20 2 3.25 2 1.25 0 1.70 -0.50 3.95 -4.30 1.40 -2.35 3.55 -6.25 4.75 -8.70 1.20 -2.40 3.55 -6.05 5.25 -8.05 1.65 -2.05 4.65 -6.15 6.70 -9.20 3.90 -5.85 5.90 -8.25 6.85 -8.25 0.80 0 0.35 1.95 -1.90 8 -1.10 2.90 -2.30 6.15 -2.65 7.25 -0.35 1.10 -0.95 2.25 -1.30 2.50 -1 0.80 -4.20 11 -4.75 15.20 -0.70 5.70 0.15 14.30 1.80 17.55 0.35 0.70 1.25 1.90 1.95 2.65 0.70 0.75 1.30 1.60 1.30 1.80 0 0.25 1.15 0.90 2.55 1.50 6.40 2.65 9.25 0.75 19.75 -13.30 5.25 -7 7 -9.10 5.75 -6.75 -0.55 1.05 -5.45 7.85 -8.55 11.90 -4.50 5.95 -9.90 10.25 -12.80 10.20 -0.50 -0.05 -2.40 -0.65 -4.10 -1.35z m-26.30 -43.50 c-0.25 -0.25 -1.80 4.30 -1.75 5.05 0 0.30 0.45 -0.65 1 -2.15 0.50 -1.50 0.85 -2.80 0.75 -2.90z m3.15 -6.40 c0 -0.25 -0.40 0.30 -0.95 1.25 -0.55 0.95 -0.95 2 -0.95 2.25 0 0.30 0.40 -0.30 0.95 -1.25 0.55 -0.95 0.95 -1.95 0.95 -2.25z"
       id="path61" />
    <path
       d="M205.60 398 c0 -0.95 0.10 -1.35 0.25 -0.85 0.10 0.45 0.10 1.25 0 1.75 -0.15 0.45 -0.25 0.05 -0.25 -0.90z"
       id="path62" />
    <path
       d="M101.70 391.85 c0.70 -3.70 6.65 -21.15 7.10 -20.70 0.10 0.10 -1.05 3.85 -2.60 8.40 -1.50 4.50 -3.10 9.45 -3.55 10.95 -0.90 3.30 -1.40 4 -0.95 1.35z"
       id="path63" />
    <path
       d="M173.80 385.40 c0.15 -0.65 1.70 -4.55 3.45 -8.70 3.65 -8.80 6.35 -13.65 9.65 -17.25 2.10 -2.30 2.55 -2.55 3.80 -2.25 1.85 0.45 3 3.25 2.60 6.15 -0.15 1.20 -0.45 3.20 -0.65 4.55 -0.50 3.70 -5.60 10.15 -11.75 14.85 -4.90 3.80 -7.80 4.85 -7.10 2.65z m4.10 -1.40 c6.75 -4.50 14.10 -12.95 14.10 -16.15 0 -0.90 0.25 -2.45 0.55 -3.55 0.45 -1.55 0.35 -2.35 -0.30 -4.05 -0.45 -1.20 -1.20 -2.30 -1.65 -2.50 -1.90 -0.75 -8.35 8.40 -11.35 16 -0.75 1.95 -2.25 5.45 -3.30 7.90 -1 2.40 -1.70 4.35 -1.45 4.35 0.20 0 1.75 -0.90 3.40 -2z"
       id="path64" />
    <path
       d="M109.20 369.90 c0.70 -2.30 2.85 -9.35 3.30 -10.90 0.45 -1.65 0.45 -1.60 0.20 0.65 -0.30 2.50 -2.20 8.70 -3.20 10.20 -0.50 0.80 -0.55 0.80 -0.30 0.05z"
       id="path65" />
  </g>
  <g
     fill="#6faef5"
     id="g73">
    <path
       d="M244 425.10 l-6.25 -0.15 -2.70 -3.75 -2.65 -3.75 -2.85 0.30 c-6.40 0.75 -12.95 -1.60 -17.60 -6.20 -3.15 -3.15 -5.80 -8.15 -6.15 -11.55 -0.15 -1.25 -0.15 -1.80 0 -1.25 1.80 6.30 3.75 9.80 7.15 12.90 4.45 4.05 8.30 5.40 15.10 5.40 l4.80 0 2.65 3.70 2.70 3.75 5.45 0 5.40 0 -1.30 -1.60 c-0.70 -0.90 -2.65 -3.40 -4.30 -5.55 l-3 -3.85 2.45 -2.80 c5.65 -6.35 7.45 -14.95 4.85 -23.55 -0.95 -3.25 -4.75 -8.30 -7.75 -10.40 -8.35 -5.80 -19.50 -5.15 -26.95 1.55 -1.35 1.20 -3.15 3.35 -4.05 4.70 -0.90 1.40 -1.75 2.45 -1.85 2.30 -0.30 -0.30 2 -3.85 3.90 -6.05 6.90 -7.85 20.10 -9.35 28.95 -3.35 3.35 2.30 7.20 7.35 8.30 10.80 1.10 3.55 1.45 9.70 0.70 13.45 -0.75 3.90 -2.95 8.10 -5.75 11.05 l-2.20 2.25 3.55 4.40 c1.95 2.40 4.10 5 4.80 5.75 0.70 0.75 1.20 1.45 1.05 1.50 -0.10 0.10 -3 0.10 -6.45 0z"
       id="path66" />
    <path
       d="M269.15 417.50 c-3.10 -0.65 -7.55 -3 -9 -4.75 -0.75 -0.80 -2 -2.95 -2.85 -4.75 l-1.55 -3.25 -0.15 -16 -0.15 -16 5.15 0 5.15 0 0.25 15.25 c0.20 13.50 0.35 15.45 1.15 16.65 1.40 2.20 3.20 3.05 6.30 3.10 3.45 0 5.45 -0.95 6.75 -3.25 1 -1.65 1.05 -2.80 1.30 -16.75 l0.25 -15 5.15 0 5.10 0 0 14.05 c0 14.60 -0.35 18.50 -2.10 21.90 -1.55 3.05 -5.30 6.40 -8.55 7.70 -3.30 1.25 -9 1.80 -12.20 1.10z m11.60 -1.65 c2.10 -0.75 3.75 -1.80 5.40 -3.45 4.60 -4.60 5.25 -7.85 5.35 -26.50 l0 -12.40 -4.75 0 -4.75 0 0 14.40 c0 13.15 -0.10 14.55 -1 16.50 -2.50 5.50 -12.05 5.45 -14.70 -0.10 -0.70 -1.45 -0.80 -3.85 -0.80 -16.25 l0 -14.55 -4.80 0 -4.80 0 0.20 15.35 c0.25 17.15 0.35 17.85 3.90 22.55 4.10 5.35 12.85 7.25 20.75 4.45z"
       id="path67" />
    <path
       d="M393.90 417.50 c-5.50 -0.95 -12.40 -6.05 -15 -11.20 -5.50 -10.80 -2.15 -24.55 7.50 -30.75 3.30 -2.10 9.95 -3.75 13.60 -3.40 7.10 0.75 13 4.10 16.60 9.40 3 4.40 3.65 6.85 3.65 13.75 0 5.95 0 6.05 -1.90 9.85 -4.70 9.55 -13.80 14.15 -24.45 12.35z m13.85 -2.40 c13.45 -6.35 16.50 -25.30 5.75 -36.15 -3.25 -3.25 -6.05 -4.70 -11.20 -5.75 -3.45 -0.70 -4.15 -0.70 -7.60 0 -5.15 1.05 -7.90 2.45 -11.35 5.85 -4.15 4.15 -5.90 8.20 -6.25 14.20 -0.40 7.50 1.35 12.65 5.95 17.50 6.05 6.40 16.35 8.25 24.70 4.35z"
       id="path68" />
    <path
       d="M393.50 407.70 c-2.25 -1 -4.35 -2.95 -5.65 -5.45 -0.90 -1.70 -1.10 -2.85 -1.10 -7.25 0 -6.50 1.05 -9.10 4.65 -11.65 2.05 -1.40 2.85 -1.60 6.15 -1.75 4.20 -0.20 6.15 0.40 8.85 2.65 3.05 2.55 3.85 4.80 3.85 10.75 0 4.45 -0.15 5.55 -1.10 7.25 -1.35 2.55 -3.40 4.50 -5.75 5.45 -2.35 1 -7.60 1 -9.90 0z m8.65 -0.25 c2.40 -0.65 5.10 -3 6.50 -5.65 0.90 -1.70 1.05 -2.90 1.05 -6.80 0 -5.55 -0.85 -7.75 -4.25 -10.70 -5.15 -4.35 -14.05 -2.50 -17.05 3.55 -1.55 3.20 -1.65 10.85 -0.25 13.75 2.60 5.20 8.10 7.50 14 5.85z"
       id="path69" />
    <path
       d="M299.50 395.15 l0 -22.40 13.25 0 13.25 0 0 4.40 0 4.35 -8.10 0 -8.15 0 0 4.50 0 4.50 7.15 0 7.10 0 0 4.25 0 4.25 -7.10 0 -7.15 0 0.15 5 0.15 5 8 0 7.95 0 0 4.25 0 4.25 -13.25 0 -13.25 0 0 -22.35z m26 18.10 l0 -3.75 -8.10 -0.10 -8.15 -0.15 -0.15 -4.95 c-0.10 -3.20 0.05 -5.15 0.45 -5.60 0.45 -0.55 2.15 -0.70 7.25 -0.70 l6.70 0 0 -3.50 0 -3.45 -7.10 -0.15 -7.15 -0.15 -0.15 -4.65 c-0.10 -3.40 0.05 -4.70 0.50 -4.85 0.35 -0.15 4.05 -0.30 8.15 -0.35 l7.50 -0.15 0.15 -3.60 0.15 -3.65 -12.80 0 -12.75 0 0 21.75 0 21.75 12.75 0 12.75 0 0 -3.75z"
       id="path70" />
    <path
       d="M333 395.15 l0 -22.40 11.35 0.30 c12.35 0.30 13.85 0.60 17.90 3.20 7.10 4.50 10.70 13.15 9.40 22.50 -1.20 8.30 -5.85 14.20 -13.65 17.20 -3.05 1.15 -4 1.25 -14.10 1.45 l-10.90 0.20 0 -22.45z m24.25 20.40 c6.45 -2.30 11.25 -7.25 13.10 -13.55 1.05 -3.50 1.05 -10.40 0 -13.85 -0.90 -2.95 -3.55 -7.30 -5.65 -9.20 -4.90 -4.50 -8.65 -5.45 -21.55 -5.45 l-9.65 0 0 21.80 0 21.80 10.40 -0.20 c8.95 -0.25 10.75 -0.40 13.35 -1.35z"
       id="path71" />
    <path
       d="M343 395 l0 -13.50 4.40 0 c5.60 0 7.45 0.55 10.25 3 2.95 2.60 4.10 5.55 4.10 10.50 0 4.85 -1.15 7.80 -3.95 10.40 -2.70 2.50 -4.75 3.10 -10.40 3.10 l-4.40 0 0 -13.50z m11.75 11.90 c4.25 -2.25 6.40 -6.20 6.40 -11.85 0 -4.80 -1.05 -7.45 -4 -10.05 -2.75 -2.40 -4.70 -3 -9.75 -3 l-3.90 0 0 13.05 0 13.05 4.90 -0.20 c3.10 -0.15 5.40 -0.50 6.35 -1z"
       id="path72" />
    <path
       d="M222.50 407.70 c-5.25 -2.30 -7.95 -8.35 -6.90 -15.75 0.50 -3.95 1.95 -6.45 4.85 -8.55 2.05 -1.45 2.75 -1.65 6.15 -1.85 3.20 -0.10 4.25 0.05 6.10 0.95 4.40 2.10 6.80 6.50 6.80 12.50 0 5.85 -2.45 10.40 -6.65 12.45 -2.60 1.25 -7.70 1.40 -10.35 0.25z m8.65 -0.25 c1.05 -0.30 2.80 -1.30 3.85 -2.25 2.65 -2.40 3.75 -5.50 3.75 -10.45 0 -5.35 -1.60 -8.80 -5.10 -11 -2.15 -1.35 -2.80 -1.50 -6.40 -1.50 -3.70 0 -4.15 0.10 -6.40 1.65 -3.25 2.25 -4.45 4.80 -4.75 9.90 -0.15 3 0 4.75 0.60 6.60 1.95 5.85 8.10 8.85 14.45 7.05z"
       id="path73" />
  </g>
  <g
     id="g74" />
</svg>
